<svg id="Layer_1" data-name="Layer 1" xmlns="http://www.w3.org/2000/svg" viewBox="0 0 246.53 323.07"><defs><style>.cls-1{fill:#737373;}.cls-2{fill:#727272;}.cls-3{fill:#6c6c6c;}.cls-4{fill:#6f6f6f;}</style></defs><title>IconSpec</title><path class="cls-1" d="M430.83,182.9l-22.47-.66L409,155.8H383.25l-.95-19.65L185.76,137l-1.3,273.19,21.67,1.36L207.45,438l19.83.66,0,20.56H431Q430.92,321.06,430.83,182.9ZM192.21,384.28c.64-37.78.22-75.57.22-113.36,0-35.87.41-71.74-.22-107.6-.23-13.34,2.72-19.7,18-19.44,48.66.83,97.35.66,146,.08,13.23-.16,17.93,4.13,17.84,17.56q-.7,111.44,0,222.88c.08,13.51-4.86,17.75-18,17.61q-73-.8-146,0C196.72,402.18,192,397.66,192.21,384.28Zm25.43,35.4c-.47-8.91,8.16-6.24,13.09-6.28,43.53-.3,87.08-1,130.59.17,18.16.47,24.5-4.72,24.2-23.59-1-64.64-.4-129.31-.39-194,0-5.12-.27-10.27.18-15.36.41-4.67-1.29-12.13,6.13-11.62,7,.48,5.08,7.87,5.11,12.51.21,38.41.12,76.82.12,115.23,0,37.13-.35,74.27.21,111.39.19,12.53-4.42,16.77-16.78,16.66-49.93-.46-99.87-.12-149.8-.31C225.66,424.51,218,426.5,217.64,419.69ZM403.41,447.9c-49.85-.48-99.71-.09-149.57-.35-5,0-13.82,2.56-13.35-6,.42-7.79,9-5.28,14.18-5.31,42.19-.25,84.37-.13,126.56-.17,26.79,0,26.82-.06,26.83-27.75q0-94.92,0-189.84c0-4.47-.43-9,.16-13.41.68-5-2.37-13.53,6.46-13,6.75.38,4.92,8,4.94,12.64.21,38.35.12,76.7.12,115.05,0,37.07-.31,74.15.18,111.22C420.09,443.15,416.06,448,403.41,447.9Z" transform="translate(-184.47 -136.16)"/><path class="cls-2" d="M231.5,323.67c16.53.25,33.07.1,49.61.1v.14c17.81,0,35.63.12,53.44-.09,4.32,0,9.89-.14,10.55-5.81.7-6.07-4.85-7.1-9.17-7.13q-52.47-.36-104.94-.1c-4.25,0-9.91.65-9.64,6.7C221.62,323.32,227.22,323.6,231.5,323.67Z" transform="translate(-184.47 -136.16)"/><path class="cls-3" d="M228.95,293.17q53.74.14,107.48,0c3.77,0,8.51-.69,8-5.84s-5.48-4.59-9.09-4.62c-17.27-.16-34.55-.07-51.82-.07v.09c-17.91,0-35.83-.09-53.74.08-3.66,0-8.46.2-8.12,5.55C221.9,292,225.64,293.16,228.95,293.17Z" transform="translate(-184.47 -136.16)"/><path class="cls-2" d="M283.49,351.85c17.17,0,34.34.17,51.5-.13,3.94-.07,10.19.85,9.42-6-.52-4.59-5.42-4.8-9.2-4.81q-52.46-.1-104.91,0c-3.9,0-8.59.8-8.73,5.35-.15,4.82,4.7,5.39,8.51,5.41,17.8.13,35.61.06,53.41.06Z" transform="translate(-184.47 -136.16)"/><path class="cls-3" d="M231.29,263.54c17.23.19,34.47.08,51.7.08v-.12c17.87,0,35.74.11,53.61-.09,3.58,0,8.46-.2,7.85-5.67-.4-3.6-4.12-4.68-7.4-4.68q-53.61-.09-107.21.08c-3.66,0-8.5.81-7.82,5.94C222.66,264,227.7,263.5,231.29,263.54Z" transform="translate(-184.47 -136.16)"/><path class="cls-4" d="M343.44,232l-.1-8.09c-40.28.06-80.59-1.72-120.83,1l.07,7.1Z" transform="translate(-184.47 -136.16)"/><path class="cls-2" d="M257.25,205c8.93.14,17.86,0,26.8,0v.09c8.3,0,16.59.15,24.88-.06,4.29-.11,10,.44,10-5.87,0-4.83-4.9-5.27-8.72-5.29q-26.8-.13-53.59.1c-3.82,0-8.49.71-8.16,5.73C248.73,204.52,253.4,204.93,257.25,205Z" transform="translate(-184.47 -136.16)"/></svg>