<svg id="Layer_1" data-name="Layer 1" xmlns="http://www.w3.org/2000/svg" viewBox="0 0 504.14 377.14"><defs><style>.cls-1{fill:#cdcdcd;}.cls-2{fill:#cecece;}.cls-3{fill:#838383;}.cls-4{fill:none;}</style></defs><title>IconPattern</title><path class="cls-1" d="M132.52,239.46c1.13-.66,2.42-1.44,3.82-2.33a86.86,86.86,0,0,0,10.23-7.44l-.13-.1C143.27,231.72,137.91,235.4,132.52,239.46Z" transform="translate(-48.99 -107.4)"/><path class="cls-2" d="M310.77,262.53l-33.27,0,.07,5.07L278,298l33,.43Z" transform="translate(-48.99 -107.4)"/><path class="cls-2" d="M222,262.5l.5,35.5,33,.43-.23-35.91Z" transform="translate(-48.99 -107.4)"/><path class="cls-2" d="M167.5,262.5,168,298l33,.43-.23-35.91Z" transform="translate(-48.99 -107.4)"/><path class="cls-3" d="M86.74,311.09a2.38,2.38,0,0,1,1.33,1.63,2.27,2.27,0,0,1,.41-.85C87.63,310.7,87.33,310.44,86.74,311.09Z" transform="translate(-48.99 -107.4)"/><path class="cls-4" d="M86.95,251.22C73.16,253.86,67,267.54,69,277c3,13.76,14.68,21,28,17.77,11.5-2.74,19.28-14.74,17-25.48C111.5,257.34,96.72,246.94,86.95,251.22Z" transform="translate(-48.99 -107.4)"/><path class="cls-4" d="M85.2,127.65c-12.84,3.12-20,14.86-16.84,27.7,1.72,13.08,16.57,20.77,28.21,17.84,12.36-3.11,20.54-15.72,17.7-27.62C111,131.83,98.84,124.33,85.2,127.65Z" transform="translate(-48.99 -107.4)"/><path class="cls-4" d="M86.95,251.22C73.16,253.86,67,267.54,69,277c3,13.76,14.68,21,28,17.77,11.5-2.74,19.28-14.74,17-25.48C111.5,257.34,96.72,246.94,86.95,251.22Z" transform="translate(-48.99 -107.4)"/><path class="cls-4" d="M86.74,311.09a2.38,2.38,0,0,1,1.33,1.63,2.27,2.27,0,0,1,.41-.85C87.63,310.7,87.33,310.44,86.74,311.09Z" transform="translate(-48.99 -107.4)"/><path class="cls-4" d="M85.2,127.65c-12.84,3.12-20,14.86-16.84,27.7,1.72,13.08,16.57,20.77,28.21,17.84,12.36-3.11,20.54-15.72,17.7-27.62C111,131.83,98.84,124.33,85.2,127.65Z" transform="translate(-48.99 -107.4)"/><path class="cls-4" d="M86.95,251.22C73.16,253.86,67,267.54,69,277c3,13.76,14.68,21,28,17.77,11.5-2.74,19.28-14.74,17-25.48C111.5,257.34,96.72,246.94,86.95,251.22Z" transform="translate(-48.99 -107.4)"/><path class="cls-4" d="M86.74,311.09a2.38,2.38,0,0,1,1.33,1.63,2.27,2.27,0,0,1,.41-.85C87.63,310.7,87.33,310.44,86.74,311.09Z" transform="translate(-48.99 -107.4)"/><path class="cls-4" d="M85.2,127.65c-12.84,3.12-20,14.86-16.84,27.7,1.72,13.08,16.57,20.77,28.21,17.84,12.36-3.11,20.54-15.72,17.7-27.62C111,131.83,98.84,124.33,85.2,127.65Z" transform="translate(-48.99 -107.4)"/><path class="cls-4" d="M86.95,251.22C73.16,253.86,67,267.54,69,277c3,13.76,14.68,21,28,17.77,11.5-2.74,19.28-14.74,17-25.48C111.5,257.34,96.72,246.94,86.95,251.22Z" transform="translate(-48.99 -107.4)"/><path class="cls-4" d="M85.2,127.65c-12.84,3.12-20,14.86-16.84,27.7,1.72,13.08,16.57,20.77,28.21,17.84,12.36-3.11,20.54-15.72,17.7-27.62C111,131.83,98.84,124.33,85.2,127.65Z" transform="translate(-48.99 -107.4)"/><path class="cls-4" d="M86.74,311.09a2.38,2.38,0,0,1,1.33,1.63,2.27,2.27,0,0,1,.41-.85C87.63,310.7,87.33,310.44,86.74,311.09Z" transform="translate(-48.99 -107.4)"/><path class="cls-4" d="M86.95,251.22C73.16,253.86,67,267.54,69,277c3,13.76,14.68,21,28,17.77,11.5-2.74,19.28-14.74,17-25.48C111.5,257.34,96.72,246.94,86.95,251.22Z" transform="translate(-48.99 -107.4)"/><path class="cls-4" d="M86.74,311.09a2.38,2.38,0,0,1,1.33,1.63,2.27,2.27,0,0,1,.41-.85C87.63,310.7,87.33,310.44,86.74,311.09Z" transform="translate(-48.99 -107.4)"/><path class="cls-4" d="M85.2,127.65c-12.84,3.12-20,14.86-16.84,27.7,1.72,13.08,16.57,20.77,28.21,17.84,12.36-3.11,20.54-15.72,17.7-27.62C111,131.83,98.84,124.33,85.2,127.65Z" transform="translate(-48.99 -107.4)"/><path class="cls-4" d="M86.95,251.22C73.16,253.86,67,267.54,69,277c3,13.76,14.68,21,28,17.77,11.5-2.74,19.28-14.74,17-25.48C111.5,257.34,96.72,246.94,86.95,251.22Z" transform="translate(-48.99 -107.4)"/><path class="cls-4" d="M86.74,311.09a2.38,2.38,0,0,1,1.33,1.63,2.27,2.27,0,0,1,.41-.85C87.63,310.7,87.33,310.44,86.74,311.09Z" transform="translate(-48.99 -107.4)"/><path class="cls-4" d="M85.2,127.65c-12.84,3.12-20,14.86-16.84,27.7,1.72,13.08,16.57,20.77,28.21,17.84,12.36-3.11,20.54-15.72,17.7-27.62C111,131.83,98.84,124.33,85.2,127.65Z" transform="translate(-48.99 -107.4)"/><path class="cls-1" d="M272.52,149.21c-.22-1.81-2.12-2.89-3.57-3.71-1.81-1-3.94-1.53-8.21-2.52h0a84.22,84.22,0,0,0-21.54-2.19,89.18,89.18,0,0,0-10.32,1,58,58,0,0,0-12.09,3.53,60.9,60.9,0,0,0-9.43,5c-11.24,7-22.5,13.88-33.46,21.28l-15.72,10.17-9,4.84a8.56,8.56,0,0,1-4.47,2,9.28,9.28,0,0,1-5.31-1.25c-2.51-1.24-5.33-2.7-8.4-4.37a14,14,0,0,0-2.76-1.53q-.2-.4-.38-.81c-5-3.13-2.76-7.28-1.22-11,1.86-4.48,3.94-8.79,4.6-13.7,1.54-11.46-2-21.49-8.11-30.91a.89.89,0,0,1,.25-.29,32.25,32.25,0,0,0-17.11-12.95,1.16,1.16,0,0,0,0-.14q0-.39-.42-.65c-11.13-4.81-22.24-4.9-33.06.7-9.28,4.81-16.38,11.86-20.35,21.74l.46-.1a64.55,64.55,0,0,1-1.58,6.36c-3.3,11.64-1.17,22.8,4.87,32.79a38.88,38.88,0,0,0,7.9,9.25,22.72,22.72,0,0,0,6.4,5.51c11.56,6.58,22.71,13.85,34.08,20.74,3.12,1.89,4.86,3.83.84,6.39-5.09,3.25-27.63,16.83-37.42,24.06-6.08,4.49-8.87,7.73-10.7,10.27-3.63,5-6,10.87-6.51,13.73-2.94,7.8-2.08,15.9.56,23.64,6.13,17.95,18.95,27.6,38.22,28.91,18.41,1.25,32.2-8.53,39.65-22.87,6.48-12.49,6.18-25.37,0-37.92-2.1-4.3-2.46-8.14-.22-12,1.13-.89,2.28-1.78,3.44-2.65,5.39-4.06,10.75-7.74,13.92-9.86l.13.1,20.06,15.79,71.93,2.41-58.43-36.13a1.43,1.43,0,0,1,0-.34c0-1,1.13-1.66,1.5-1.89,2.23-1.41,26.42-16.86,59.68-38.07h0l27.5-17.17C271.23,153,272.74,151,272.52,149.21ZM88.06,312.72a2.38,2.38,0,0,0-1.33-1.63c.6-.65.89-.39,1.74.78A2.27,2.27,0,0,0,88.06,312.72Zm9-18c-13.37,3.18-25.07-4-28-17.77-2-9.44,4.13-23.12,17.92-25.75,9.77-4.29,24.55,6.11,27.1,18C116.35,280,108.58,292,97.08,294.74Zm-.5-121.55c-11.65,2.93-26.5-4.76-28.21-17.84-3.14-12.84,4-24.59,16.84-27.7,13.64-3.31,25.81,4.19,29.08,17.93C117.11,157.47,108.94,170.08,96.58,173.19Z" transform="translate(-48.99 -107.4)"/><path class="cls-2" d="M552.93,341.1c0-43.18-.1-86.35.07-129.53,0-9.06-1.87-14.7-12.83-14.62q-72.53.51-145.07,0c-9.75-.05-12.88,4.18-12.62,13.35.41,14.24-.27,28.51.25,42.74.3,8-2.41,13.81-8.1,19.35-19.48,19-38.36,38.58-57.91,57.49-6.43,6.22-9,12.86-8.92,21.72.34,38.86.49,77.72-.05,116.57-.17,12.39,4.11,16.42,16.55,16.34q106.21-.72,212.42,0c12.62.09,16.54-4.29,16.39-16.5C552.63,425.73,552.94,383.41,552.93,341.1Zm-223,41.42a17.17,17.17,0,0,1,0-5.15c.41-3.67-.42-8.76,5.17-8.61,5.21.14,5,5,5.3,8.8.15,1.71,0,3.44,0,6.37-1.26,4.07,2.88,13.6-5.51,13.45C326.85,397.23,331,387.87,329.95,382.52Zm5.1,78.46c-9,0-2.82-9.68-5.09-12.89,0-3.72-.09-5.85,0-8,.17-3.4.12-7.65,4.45-8,5.14-.43,5.79,4,6,7.95a29.06,29.06,0,0,1,.06,6.36C339.67,451.79,343.27,461,335.05,461Zm33.78-137.45c-4.46,7.35-11,12.71-17.06,17.56-5.43-.45-7.35-3-5.79-6.95a17.63,17.63,0,0,1,5.52-6.84c4.75-3.72,7.21-11.34,15-10C369.39,317.83,370.29,321.13,368.83,323.54Zm23.66,139.72c-1.71.16-3.45,0-5.18,0v-.11c-2.16,0-4.33.15-6.47,0-3.52-.31-7.58-.9-7.76-5.21-.23-5.28,4.41-5.7,8.27-6a78.83,78.83,0,0,1,11.64-.16c4.2.26,9.84,0,9.58,6C402.32,463.52,396.68,462.87,392.49,463.25ZM395,295.34c-2.3-.08-4.22-1.29-4.33-4.5-.11-3.46,14.5-18.77,18-18.8,3.11,0,4.62,1.7,4.83,4.67C413.83,281,400.18,295.24,395,295.34Zm23.54-65.43a10.24,10.24,0,0,0-2.21,1.29c-3,2.35-3.67,9.18-9.54,5.66-4.35-2.61-3.52-7.57-2.82-11.77,1-6,5.82-6.71,10.78-6.89,3.86.19,8.46-.21,10.1,4C426.94,227.55,422,228.38,418.57,229.91Zm40.31,233.17c-2.56.21-5.15,0-7.73,0v.31c-2.57-.15-5.16-.16-7.71-.5-3.14-.41-6.21-1.54-6.29-5.24-.09-4.53,3.57-5.52,7.1-5.74a119.93,119.93,0,0,1,14.16-.07c3.87.22,8.48.75,8.24,6C466.45,462.06,462.4,462.79,458.88,463.08Zm20.9-233.49c-2.13.2-4.3,0-6.44,0v.2c-2.15-.09-4.31-.07-6.44-.31-3.46-.39-7.59-.85-7.85-5.12-.32-5.23,4.23-5.83,8.12-6.1a110.37,110.37,0,0,1,12.89-.07c3.92.19,8.55.66,8.44,5.8S483.63,229.24,479.78,229.59ZM516.6,463.23c-3.39,0-5.14.17-6.83,0-4.17-.51-9.7-.27-9.25-6.3.36-4.86,5.38-4.71,9.19-5.13a19.86,19.86,0,0,1,5.15-.11c5.47.85,14.64-2.49,14.69,5.79C529.62,466.05,520.15,461.77,516.6,463.23Zm14.22-28.4c-.21,3.09-.88,6.46-4.6,6.6-4.39.16-5.43-3.42-5.76-7a26.14,26.14,0,0,1-.12-6.4c.87-5.43-2.82-12.78,5.1-15.42,4.27-1.43,5.76,2.83,5.41,15.84C530.85,430.56,531,432.7,530.83,434.83Zm-.32-61.91c-.43,2.66-1.76,5-5.06,4.62a4.54,4.54,0,0,1-4.27-4.15c-.46-6-.7-12-.61-18,.05-3.55,1.17-7.44,5.62-7.15s4.45,4.52,4.67,7.92c.17,2.57,0,5.16,0,11.53A26.21,26.21,0,0,1,530.51,372.92Zm-4.91-59.63c-8-.24-4.34-9.53-5.24-15a21.44,21.44,0,0,1,.06-5.15c.32-3.91.52-8.63,5.76-8.38,5.46.25,4.43,5.33,4.77,9,.16,1.71,0,3.44,0,6.16C529.15,303.89,534.59,313.56,525.6,313.29Zm5-68.17c-.32,2.7-1.51,5.08-4.67,5.13s-4.58-2.3-5-4.91a30.57,30.57,0,0,1-.48-9c.7-5.46-2.76-14.77,5.29-14.85,8.65-.08,3.59,9.51,5.46,14C531,239.12,531,242.14,530.6,245.12Z" transform="translate(-48.99 -107.4)"/></svg>