<svg id="Layer_1" data-name="Layer 1" xmlns="http://www.w3.org/2000/svg" viewBox="0 0 539.14 521.38"><defs><style>.cls-1{fill:#727272;}.cls-2{fill:none;isolation:isolate;}</style></defs><title>IconTrims</title><path class="cls-1" d="M183.38,415.9c0-28,.08-55.95-.09-83.92,0-3.64,1.36-5.32,4.47-6.73q74.74-34,149.37-68.35c5.43-2.5,9.89-2.66,15.46-.06,40.26,18.8,80.69,37.25,121.07,55.8,7.56,3.47,15.1,7,22.76,10.28,4.39,1.86,6.55,4.17,6.53,9.55q-.36,82.22-.05,164.44c0,4.31-1.37,6.56-5.28,8.33q-65.28,29.51-130.44,59.28c-8.63,3.93-17.16,8.12-25.94,11.68a11.48,11.48,0,0,1-8.31-.09c-47.63-22.69-95.13-45.66-142.73-68.41-4.91-2.35-7.07-5-7-10.88C183.6,469.85,183.38,442.87,183.38,415.9Zm157.71,65.6H341c0-26-.06-52,.06-78,0-4.2-1.34-6.59-5.34-8.4q-54.59-24.73-109-49.84-12.47-5.72-24.88-11.57c-5.1-2.4-6.7-1.65-7.28,3.61a26.53,26.53,0,0,0-.24,3c.1,21,.28,41.92.33,62.88.06,27.62.61,55.26-.28,82.85-.31,9.59,3.62,13.32,11.31,16.91,43.14,20.13,86.09,40.68,129.1,61.09,4.73,2.24,6.3,1.25,6.31-4.06Q341.09,520.74,341.09,481.5ZM405.94,450c0-5.22,0-9.31,0-13.4q-.29-29.23-.64-58.47c-.07-4.92-1.34-5.92-5.15-4.06-14.66,7.15-29.32,14.3-43.82,21.75-1.85,1-3.84,3.67-3.93,5.65-.43,9.45-.29,18.93-.23,28.4.11,18.94.44,37.88.4,56.82,0,22.46-.38,44.92-.55,67.37,0,5.94,1.64,7,6.85,4.51q28.18-13.42,56.37-26.81,35-16.57,70-33c3.89-1.83,6.4-3.91,6.37-8.88-.13-19,.3-37.92.29-56.87,0-19.16-.4-38.31-.42-57.47,0-13.3.37-26.61.44-39.92,0-5-1.81-6.07-6.16-3.92-11.05,5.44-21.92,11.28-33.19,16.24-5.8,2.55-7.06,6.25-7,12,.26,21.16,0,42.32.18,63.48,0,3.8-1.4,5.73-4.48,7.36-7.5,4-14.89,8.16-22.34,12.24C415.06,445.15,411.13,447.22,405.94,450ZM263.14,302.8c-1.82.67-3.56,1.22-5.22,2-13.54,6-27.09,12-40.57,18.12-1.94.88-3.49,2.63-5.22,4,1.62,1.24,3.08,2.83,4.89,3.66,15.89,7.27,31.84,14.38,47.76,21.57q37.3,16.85,74.55,33.8a12.06,12.06,0,0,0,11.36-.16c12.2-6.11,24.59-11.85,36.83-17.89,1.61-.8,2.79-2.47,4.17-3.73-1.36-1.11-2.57-2.55-4.11-3.28q-59.83-28.2-119.73-56.25C266.36,303.84,264.75,303.39,263.14,302.8ZM438.8,342.73a38.33,38.33,0,0,0,4.24-1.38c8.88-4.17,17.77-8.34,26.57-12.68,1.49-.74,2.55-2.33,3.82-3.52-1.33-1.11-2.5-2.58-4-3.27q-60.59-27.72-121.28-55.2a8.26,8.26,0,0,0-6-.15c-10.54,4.55-21,9.37-31.35,14.25a5.34,5.34,0,0,0-2.61,3.12c-.15.6,1.44,2,2.51,2.5,5.73,2.68,11.53,5.2,17.31,7.76q47.5,21,95,41.88C428.31,338.36,433.68,340.56,438.8,342.73Z" transform="translate(-20.4 -55.55)"/><path class="cls-2" transform="translate(-20.4 -55.55)"/><path class="cls-1" d="M429.55,217.1c-33.48,0-67-.1-100.45,0a29.47,29.47,0,0,1-29.59-31c.67-13.9,7.34-23.68,21.76-27.81,20.62-5.9,41.34-11.45,62-17.14,12.18-3.35,24.34-6.81,36.58-9.93,3.58-.92,5.07-2.79,5.07-6.25,0-4.83.13-9.66,0-14.49-.11-4.31,1.65-6.32,6.1-6.67,8.82-.68,16.52-8.29,17.72-17,1.11-8-4-16.54-12.07-19.94-8.47-3.59-19,0-23.94,8.2-.43.71-.76,1.48-1.16,2.21-1.54,2.83-3.91,4.48-7,3-3.25-1.54-2.8-4.61-1.76-7.41,2.46-6.6,7.34-11.12,13.4-14.24,14.45-7.45,33.32-1.13,39.4,13.38,6.72,16,.6,33.83-16.22,39.84-5.75,2.05-5.73,2.37-5.46,12.47.11,4.19,1.83,6,6,7.07,30.53,8.15,61,16.65,91.47,24.92,10.93,3,20.7,7,25.54,18.54,8.51,20.21-5.07,41.94-27,42.11C496.52,217.29,463,217.1,429.55,217.1Zm0-9.8q49.24,0,98.47,0c11.43,0,20.43-7.5,21.82-17.9,1.27-9.52-5.29-18.86-15.81-22-8.6-2.58-17.29-4.86-26-7.22-24.07-6.55-48.12-13.21-72.27-19.48a25.89,25.89,0,0,0-12.13-.11c-13.09,3.17-26,7-39,10.54-20.06,5.48-40.14,10.89-60.19,16.44-8.14,2.25-13,7.92-14.9,16-1.69,7.3,1.12,13.36,6.44,18.42,4.25,4,9.31,5.45,15.07,5.44Q380.27,207.23,429.51,207.3Z" transform="translate(-20.4 -55.55)"/><path class="cls-2" transform="translate(-20.4 -55.55)"/><path class="cls-1" d="M229.88,59.2c15-.89,22.33,9.24,24.07,22.5q4.08,31.18,7.59,62.43a179.1,179.1,0,0,1,1.33,22.26c-.15,12.66-8.83,21.16-16,30.27q-44.64,57-89.41,114c-8.77,11.16-22,12.74-33,4.22-31.74-24.54-63.11-49.56-94.81-74.16a23.3,23.3,0,0,1-4.12-33.2q40.06-50.8,80-101.7c5.56-7.07,11.12-14.14,16.48-21.36a38.18,38.18,0,0,1,27.59-15.93c25-2.87,49.85-6.21,74.78-9.3A44.92,44.92,0,0,1,229.88,59.2ZM250,160c-1.28-11.45-2.64-24.66-4.26-37.85C244,108.33,242,94.54,240.27,80.7c-.77-6.22-4.58-9.47-10.83-8.69-2.8.35-5.62.56-8.43.86-7.6.79-15.22,1.46-22.8,2.41-14.16,1.78-28.25,4.22-42.45,5.42-9.93.84-17.77,4.11-24,12.1Q84.2,153.88,36.32,214.72c-4.86,6.2-4.59,10.12,1.2,15.58,1.57,1.48,3.29,2.81,5,4.15q27.08,21.31,54.18,42.6C108.09,286,119.48,295,131,303.8c7,5.4,11.64,4.8,17.09-1.95,2.41-3,4.68-6.06,7-9.07Q199.51,236.2,244,179.68C248.25,174.3,250.63,168.61,250,160Z" transform="translate(-20.4 -55.55)"/><path class="cls-1" d="M203.45,138a21.34,21.34,0,0,1-21.51-22c.2-13.52,9.4-22.09,23.5-21.9,10.25.14,20.88,11.21,20.44,22C225.37,128.35,215.84,138.63,203.45,138Zm9.4-22a9.11,9.11,0,0,0-9.26-9c-4.66.07-9.37,4.37-9.42,8.6-.06,5.15,5.19,10.65,10,10.49C208.29,125.84,212.92,120.47,212.86,115.93Z" transform="translate(-20.4 -55.55)"/><path class="cls-2" transform="translate(-20.4 -55.55)"/></svg>