<svg id="Layer_1" data-name="Layer 1" xmlns="http://www.w3.org/2000/svg" viewBox="0 0 557.39 361.68"><defs><style>.cls-1{fill:none;}.cls-2{fill:#727272;}</style></defs><title>IconStitching</title><path class="cls-1" d="M506.15,230.6c.07,5.47,2.65,8.8,8.43,8.86,6.54.07,13.09.17,19.62,0,5.79-.19,9.27-3.49,9.36-9.26.22-13.35.31-26.72,0-40.07-.18-6.88-5.13-10.73-12-10.43-5.16.23-10.33.64-15.49.61-6.51,0-9.61,3.3-9.8,9.45-.21,6.81,0,13.63,0,20.44h-.05C506.13,217,506.06,223.79,506.15,230.6Z" transform="translate(-28.61 -120.16)"/><path class="cls-1" d="M561.13,436.21c-2.62-2.4-8.26-2-12.55-2q-120.71-.15-241.42-.07v-.07q-88,0-176,0c-23.46,0-46.92-.09-70.38.2-9.06.11-17.85,8.5-17.78,16,.07,7.32,9.09,15.94,17.59,16.71,2.17.2,4.36.09,6.54.09q239.8,0,479.6,0a55,55,0,0,0,9.78-.5c6.43-1.17,15.84-9.66,14.47-14.72A34.64,34.64,0,0,0,561.13,436.21Z" transform="translate(-28.61 -120.16)"/><path class="cls-1" d="M349,401.44c0,13.06,3.3,16.41,16.5,16.41q50.73,0,101.47.06c23.79,0,24.72-.94,24.42-24.87-.62-48.47-1.47-97-1.59-145.43-.09-32.43.85-64.86,1.45-97.28.2-11.06-2.61-14.27-13.72-14.3-19.91-.06-39.83-.24-59.73.15a33.59,33.59,0,0,0-13.9,3.64,224.44,224.44,0,0,1-75.78,22.83c-19.09,2.15-38.56,1.4-57.85,1.08-25.38-.42-49.43-8-72.24-18-14.3-6.28-27.92-11.07-43.64-9.78-9.48.78-19.08.11-28.63.11-13.73,0-15.92,2.33-15.88,16.4.05,18.55,0,37.1,0,55.64h0c0,19.37-.11,38.73,0,58.1.09,12,2.36,14.1,14.6,14.24,9.54.1,19.09.06,28.64.06,9.75,0,12.89-2.71,15.33-12.18,6.6-25.56,23.23-43.09,48.41-47.82,27.08-5.09,55-6.2,82.14,3.34,25.2,8.85,49.16,39.58,49.52,66.35C349.11,327.25,348.92,364.35,349,401.44Z" transform="translate(-28.61 -120.16)"/><path class="cls-2" d="M585.67,445.44C583,428.11,572.83,418.25,556.91,418c-12.55-.19-25.1,0-37.65-.13-10.33-.07-13.17-2.8-13.18-13.16Q506,336.8,506,268.87c0-11.94,2.42-14.21,14.48-14.43,22-.41,22.15-.4,23.22,21.3.28,5.58,2.56,7.83,8,7.81s7.25-2.72,7.3-7.64c.16-16,.55-32,.58-48.07.06-27.48-.14-55-.07-82.45,0-4.66-1.44-7-6.39-7.43-7.19-.61-9.58,2.31-9.52,9.4.12,14.84-.92,15.58-15.82,15.67-4.09,0-8.18,0-12.28-.05-6.4,0-9.5-3.24-9.46-9.64.06-8.18-.22-16.38.13-24.55.28-6.37-2.2-8.67-8.59-8.62-28.92.21-57.84-.07-86.75.25-4.36,0-8.86,2-13,3.73-13.26,5.56-26,12.56-39.67,16.84-11.74,3.68-24.38,4.61-36.67,6.36-44.27,6.28-86.69.57-126.85-19.8-5.49-2.78-11.29-6.74-17-6.92-25.35-.77-50.73-.31-76.1-.4-5.25,0-7,2.16-7,7.47Q95,203.77,95,279.86c0,17.13-.06,17.13,16.76,16.77,12.48-.27,14.74,1.92,14.78,14.63.05,14.73.23,29.47-.08,44.19-.15,7.24,3.35,9,9.67,8.37,5.54-.54,6.3-4.06,6.27-8.62q-.17-22.1-.08-44.19c0-12.27,2.25-14.44,14.22-14.39,5.46,0,10.92-.11,16.36.12,6.26.27,9.51-2.36,8.48-8.72-4.08-25.17,27.85-55.31,51.72-53.77,12.22.79,24.55.47,36.81.07,13.67-.45,24.88,5.62,35.34,13,21.3,15.09,29.61,37.06,30.26,62.21.54,20.69.16,41.4.14,62.1,0,10.63.25,21.27-.32,31.87-.61,11.5-3.87,14.27-15.23,14.31-20.73.07-41.47,0-62.2,0q-99.44,0-198.87,0c-8,0-14.84,1.73-21,7.15-10.81,9.47-11.14,25.26-6.76,37.91,4,11.68,16.2,18.88,30.84,18.9q122.75.09,245.49,0v-.11q121.52,0,243-.08a53,53,0,0,0,14.47-2C578.77,475.67,587.89,460.15,585.67,445.44ZM506.23,189.71c.19-6.14,3.29-9.49,9.8-9.45,5.16,0,10.33-.39,15.49-.61,6.88-.3,11.83,3.55,12,10.43.34,13.35.26,26.71,0,40.07-.09,5.78-3.57,9.07-9.36,9.26-6.53.22-13.08.12-19.62,0-5.77-.06-8.35-3.39-8.43-8.86-.09-6.81,0-13.63,0-20.45h.05C506.18,203.34,506,196.52,506.23,189.71Zm-207.16,34.1c-27.16-9.54-55.07-8.43-82.14-3.34-25.18,4.74-41.82,22.26-48.41,47.82-2.44,9.47-5.58,12.18-15.33,12.18-9.55,0-19.09,0-28.64-.06-12.24-.13-14.51-2.23-14.6-14.24-.14-19.36,0-38.73,0-58.1h0c0-18.55,0-37.1,0-55.64,0-14.07,2.15-16.4,15.88-16.4,9.55,0,19.15.66,28.63-.11,15.72-1.29,29.34,3.5,43.64,9.78,22.81,10,46.86,17.63,72.24,18,19.29.32,38.76,1.07,57.85-1.08a224.44,224.44,0,0,0,75.78-22.83,33.59,33.59,0,0,1,13.9-3.64c19.9-.4,39.82-.21,59.73-.15,11.11,0,13.93,3.24,13.72,14.3-.6,32.43-1.54,64.86-1.45,97.28.13,48.48,1,97,1.59,145.43.3,23.93-.62,24.91-24.42,24.87q-50.73-.08-101.47-.06c-13.2,0-16.48-3.36-16.5-16.41-.06-37.09.12-74.19-.39-111.28C348.23,263.39,324.27,232.66,299.07,223.81ZM556.55,466.54a55,55,0,0,1-9.78.5q-239.8,0-479.6,0c-2.18,0-4.38.11-6.54-.09-8.51-.77-17.53-9.39-17.59-16.71-.07-7.47,8.73-15.86,17.78-16,23.46-.3,46.92-.2,70.38-.2q88,0,176,0v.07q120.71,0,241.42.07c4.29,0,9.93-.41,12.55,2a34.64,34.64,0,0,1,9.9,15.61C572.39,456.88,563,465.37,556.55,466.54Z" transform="translate(-28.61 -120.16)"/><path class="cls-2" d="M462,295.19c2.7,25.16-20.2,43.36-39.77,42.82-28.32-.78-48.28-17.63-48.28-42.69,0-23.92,21.59-46.24,45.31-45.59C438.13,250.24,464.79,265.2,462,295.19Zm-42.49-29.54c-14.51-.1-29.71,14.78-29.82,29.18-.12,14.83,13.58,28.05,29.32,28.31a27.86,27.86,0,0,0,28.58-27.55C447.88,281,433.61,265.74,419.52,265.65Z" transform="translate(-28.61 -120.16)"/></svg>