<svg id="Layer_1" data-name="Layer 1" xmlns="http://www.w3.org/2000/svg" viewBox="0 0 513.1 465.88"><defs><style>.cls-1,.cls-2{fill:#cecece;}.cls-2{stroke:#cecece;stroke-width:7px;}</style></defs><title>IconBom</title><path class="cls-1" d="M203,421.91c0-22.43.06-44.85-.07-67.28,0-2.92,1.09-4.26,3.58-5.4q59.92-27.3,119.75-54.8c4.35-2,7.93-2.13,12.39,0,32.28,15.07,64.68,29.86,97.06,44.73,6.06,2.79,12.1,5.63,18.24,8.24,3.52,1.49,5.25,3.34,5.24,7.66q-.29,65.91,0,131.82c0,3.46-1.1,5.26-4.23,6.68Q402.62,517.18,350.38,541c-6.92,3.15-13.75,6.51-20.79,9.37a9.21,9.21,0,0,1-6.66-.07c-38.18-18.19-76.26-36.61-114.42-54.84-3.94-1.88-5.67-4-5.6-8.73C203.22,465.16,203,443.53,203,421.91ZM329.48,474.5h-.06c0-20.84,0-41.68,0-62.51,0-3.36-1.07-5.28-4.28-6.73q-43.77-19.83-87.4-40-10-4.58-19.95-9.28c-4.09-1.93-5.37-1.32-5.83,2.89a21.27,21.27,0,0,0-.19,2.39c.08,16.8.23,33.61.27,50.41.05,22.14.49,44.3-.23,66.42-.25,7.69,2.9,10.68,9.07,13.56,34.58,16.14,69,32.61,103.49,49,3.79,1.8,5.05,1,5.05-3.26Q329.48,506,329.48,474.5Zm52-25.25c0-4.19,0-7.47,0-10.74q-.23-23.44-.51-46.87c-.05-3.95-1.07-4.74-4.13-3.25-11.75,5.73-23.51,11.46-35.13,17.44a6.53,6.53,0,0,0-3.15,4.53c-.34,7.58-.23,15.18-.19,22.77.09,15.18.35,30.37.32,45.55,0,18-.31,36-.44,54,0,4.76,1.31,5.6,5.49,3.61q22.59-10.76,45.19-21.49,28-13.28,56.13-26.48c3.12-1.46,5.13-3.13,5.1-7.12-.1-15.2.24-30.4.23-45.59,0-15.36-.32-30.71-.34-46.07,0-10.67.29-21.33.35-32,0-4-1.45-4.86-4.94-3.15-8.86,4.36-17.58,9-26.6,13-4.65,2-5.66,5-5.6,9.64.21,17,0,33.93.15,50.89,0,3-1.12,4.59-3.59,5.9-6,3.19-11.94,6.55-17.91,9.81C388.78,445.36,385.63,447,381.47,449.24ZM267,331.24c-1.46.54-2.86,1-4.19,1.56-10.86,4.81-21.72,9.6-32.52,14.52-1.56.71-2.8,2.11-4.19,3.18a22.67,22.67,0,0,0,3.92,2.93c12.74,5.82,25.53,11.52,38.29,17.29q29.9,13.51,59.77,27.1a9.67,9.67,0,0,0,9.11-.13c9.78-4.9,19.71-9.5,29.52-14.34,1.29-.64,2.24-2,3.34-3a18,18,0,0,0-3.3-2.63q-48-22.61-96-45.1C269.57,332.07,268.29,331.71,267,331.24Zm140.82,32a30.73,30.73,0,0,0,3.4-1.11c7.12-3.35,14.25-6.68,21.3-10.17,1.19-.59,2-1.87,3.06-2.82a16.4,16.4,0,0,0-3.22-2.62q-48.57-22.22-97.23-44.26a6.62,6.62,0,0,0-4.79-.12c-8.45,3.64-16.8,7.51-25.13,11.42a4.28,4.28,0,0,0-2.09,2.5c-.12.48,1.16,1.61,2,2,4.59,2.15,9.24,4.17,13.88,6.22q38.08,16.8,76.17,33.58C399.41,359.75,403.71,361.51,407.82,363.25Z" transform="translate(-21.4 -85.12)"/><path class="cls-1" d="M230.88,85.2c15-.89,22.33,9.24,24.07,22.5q4.08,31.18,7.59,62.43a179.1,179.1,0,0,1,1.33,22.26c-.15,12.66-8.83,21.16-16,30.27q-44.64,57-89.41,114c-8.77,11.16-22,12.74-33,4.22-31.74-24.54-63.11-49.56-94.81-74.16a23.3,23.3,0,0,1-4.12-33.2q40.06-50.8,80-101.7c5.56-7.07,11.12-14.14,16.48-21.36a38.18,38.18,0,0,1,27.59-15.93c25-2.87,49.85-6.21,74.78-9.3A44.92,44.92,0,0,1,230.88,85.2ZM251,186c-1.28-11.45-2.64-24.66-4.26-37.85-1.71-13.84-3.76-27.63-5.47-41.46-.77-6.22-4.58-9.47-10.83-8.69-2.8.35-5.62.56-8.43.86-7.6.79-15.22,1.46-22.8,2.41-14.16,1.78-28.25,4.22-42.45,5.42-9.93.84-17.77,4.11-24,12.1Q85.2,179.88,37.32,240.72c-4.86,6.2-4.59,10.12,1.2,15.58,1.57,1.48,3.29,2.81,5,4.15q27.08,21.31,54.18,42.6C109.09,312,120.48,321,132,329.8c7,5.4,11.64,4.8,17.09-1.95,2.41-3,4.68-6.06,7-9.07Q200.51,262.2,245,205.68C249.25,200.3,251.63,194.61,251,186Z" transform="translate(-21.4 -85.12)"/><path class="cls-1" d="M204.45,164a21.34,21.34,0,0,1-21.51-22c.2-13.52,9.4-22.09,23.5-21.9,10.25.14,20.88,11.21,20.44,22C226.37,154.35,216.84,164.63,204.45,164Zm9.4-22a9.11,9.11,0,0,0-9.26-9c-4.66.07-9.37,4.37-9.42,8.6-.06,5.15,5.19,10.65,10,10.49C209.29,151.84,213.92,146.47,213.86,141.93Z" transform="translate(-21.4 -85.12)"/><path class="cls-2" d="M530.36,170.62c-1.62-4.37-5.34-5.93-9.48-6.89a56.1,56.1,0,0,1-7.85-2c-7.36-2.89-7.35-3.57-1.76-9.4,5.36-5.59,11.67-10.32,14.34-18.23,2.18-6.48-.13-16.6-5.13-21.39-7.31-7-16.18-9.3-25.81-9.35-26-.11-52-.06-77.93,0a16.7,16.7,0,0,0-12.56,5.36c-15.56,15.88-31.41,31.48-47.13,47.2-15.2,15.2-30.45,30.35-45.54,45.66-12.74,12.92-15.73,28.39-9,44.83,6.53,15.91,19.22,25,36.22,25.29,15.16.3,30.33.06,45.49.06v0c15.29,0,30.58-.07,45.87,0a15.1,15.1,0,0,0,11.14-4.26c3.12-3,6-6.3,9.06-9.38q28.17-28.22,56.38-56.4,10.41-10.41,20.9-20.74C530.6,178.1,531.88,174.72,530.36,170.62Zm-21-5.67c2.88,1.5,3,5,.11,7.82-3.47,3.38-7.14,6.56-10.54,10q-23.2,23.38-46.31,46.86c-6.89,7-13.82,13.88-20.69,20.87-2.56,2.6-5.68,3.3-9.17,3.29-14,0-28.08,0-42.12,0v0c-13.92,0-27.84-.25-41.75.1-7.34.18-17-7.83-19.32-13.84-3.52-9.27-1.39-18.71,5.12-24.62a26.21,26.21,0,0,1,18.28-7q31.69,0,63.37,0a16.2,16.2,0,0,1,5.46.83c3.77,1.39,6.19,5.08,5.78,8.25-.43,3.33-4.24,6.9-8,7.26s-7.43.69-11.14.67c-17-.08-34-.42-51-.34-4,0-8.44-.44-11.12,4.28-2.9,5.09-1.1,11.38,4.54,13.25a19.09,19.09,0,0,0,5.86.73c20.38,0,40.76,0,61.13,0,8.47,0,15.49-2.6,21.63-8.89,15.52-15.91,31.55-31.32,47.3-47,6.78-6.75,13.35-13.7,20.07-20.51A10.72,10.72,0,0,1,509.38,165ZM336.7,183c10.92-11.21,22.06-22.2,33.13-33.27,12.55-12.56,25.13-25.08,37.61-37.71a14.24,14.24,0,0,1,10.94-4.57c12.93.15,25.85.05,38.78.05v0c12.93,0,25.85-.11,38.78,0,6.66.08,13,1.32,18.44,5.83,8.76,7.32,10.06,19.44,2,27.67-15.17,15.58-30.78,30.74-46.18,46.1Q457.84,199.6,445.5,212c-1,1-1.84,2-2.84,3-2.71,2.48-4.84,1.86-6.18-1.54-1.6-4.1-3-8.39-5.19-12.14-4.5-7.55-11.62-10.86-20.32-10.86-23.74,0-47.48,0-71.22,0-1.77,0-3.54-1-5.31-1.53C335.17,186.9,335.36,184.42,336.7,183Zm187.51-5.46c-8.35,8.51-16.83,16.9-25.22,25.37q-25.32,25.54-50.61,51.1A123.15,123.15,0,0,1,437,264.74a14.38,14.38,0,0,1-8,3.13c-29.08.22-58.17.3-87.25.06-18.61-.15-32.36-11-37.47-28.84-3.38-11.79,2.5-27.91,12.48-36.62,8.2-7.16,17.86-8.8,28-8.91q29.83-.32,59.66,0c6.41.07,12.83.6,18.38,4.86,13.62,10.47,12,29.88-3.43,37.35a24.11,24.11,0,0,1-9.91,2.41c-20.76.22-41.51.13-62.27.1-1.6,0-3.5.14-4.7-.65a6.59,6.59,0,0,1-2.86-4.2,5,5,0,0,1,2.41-4,21.25,21.25,0,0,1,7.91-1.63c18.89-.12,37.79-.06,56.68-.05,1.37,0,2.74,0,4.1-.08,7.08-.63,10.91-4.95,10.83-12.1-.08-6.82-4.15-11.46-11.09-11.47-25.1,0-50.2.1-75.29.54-8.72.15-18.67,9.9-20,18.34-.81,5.11-1.28,10,0,15.11,2.09,8.13,6.9,13.31,14.7,16.85,5.83,2.65,11.51,2.47,17.4,2.5,12.06.06,24.11,0,36.17,0,14.42,0,28.84-.06,43.25.05a8.87,8.87,0,0,0,6.89-2.86q41.87-42,83.83-83.85c2.19-2.19,4.25-4.06,7.27-1.39C527.09,171.62,527.06,174.69,524.21,177.59Z" transform="translate(-21.4 -85.12)"/></svg>