<svg id="Layer_1" data-name="Layer 1" xmlns="http://www.w3.org/2000/svg" viewBox="0 0 464.11 449.48"><defs><style>.cls-1{fill:#707071;}</style></defs><title>IconTechPack</title><path class="cls-1" d="M234,212c12.72-3.95,17.28-9.47,19-14,3.27-8.61-2.93-15.77,2-25,2.85-5.33,6-5,9.22-10,3.11-4.89,4.95-12.72,1-25.87a66,66,0,0,1-6-10.61A75.38,75.38,0,0,1,255,114c-3.11-12.07-1.44-13.3-3.33-17.49-3.45-7.67-10.11-6-23.67-14.51-16.81-10.61-19-18.81-28-20-9.33-1.23-10.89,5.89-24,5-11.27-.77-13.61-5.45-21-4-10.9,2.15-10.07,13.19-25,22-11.12,6.56-15.48,2.74-21,9-6.81,7.73-1.1,13.7-7,30-5.27,14.57-13.32,19-10.67,27,.79,2.37,1.62,2.34,6.81,11.73,1.58,2.87,3.87,7.16,4.86,9.31,2,4.29,4.44,12.42,2,26l21,12L84.6,300,126,288l20,40,34-73,33,73,19-40,45,13Zm-1-55c-3.13,23.87-23.29,44.83-48,47-30.93,2.71-60.11-24.8-59-57,1-28.42,25.31-53.18,54-53C212.51,94.2,237,126.34,233,157Z" transform="translate(-84.6 -61.86)"/><path class="cls-1" d="M275,121a58.87,58.87,0,0,1,7.67,37.67L409,158l.33,126.67,34.67-33L445,122Z" transform="translate(-84.6 -61.86)"/><path class="cls-1" d="M273,203a74.06,74.06,0,0,1,4,34.67l96.67-.33V203Z" transform="translate(-84.6 -61.86)"/><path class="cls-1" d="M282,276a92.55,92.55,0,0,1,14,36.65l77-.65.33-35.67Z" transform="translate(-84.6 -61.86)"/><path class="cls-1" d="M228.67,346l.67,35.33,100.33,1.33,32.67-36Z" transform="translate(-84.6 -61.86)"/><path class="cls-1" d="M159,333.67l20.33-40.33,16.82,39.79-.49,142.21,213.33,1V432l34-34V511.33H159Z" transform="translate(-84.6 -61.86)"/><path class="cls-1" d="M492,232.33l41.67,41.33L547.15,260a17.53,17.53,0,0,0,1.51-8.33,17.35,17.35,0,0,0-1.51-6l-28.15-27a10.87,10.87,0,0,0-13-1Z" transform="translate(-84.6 -61.86)"/><path class="cls-1" d="M341.33,385.33,484.67,240.67l41,42-144.33,144Z" transform="translate(-84.6 -61.86)"/><path class="cls-1" d="M333.89,395.12l-7.56,27.55L345,441l28.75-6Z" transform="translate(-84.6 -61.86)"/><path class="cls-1" d="M322.5,428,316,450.25l24.37-4.62Z" transform="translate(-84.6 -61.86)"/></svg>