<svg id="Layer_1" data-name="Layer 1" xmlns="http://www.w3.org/2000/svg" viewBox="0 0 544.28 466.01"><defs><style>.cls-1,.cls-3,.cls-5{fill:#727272;}.cls-1,.cls-3{stroke:#727272;}.cls-2{fill:none;}.cls-3{stroke-width:7px;}.cls-4{fill:#fff;}</style></defs><title>IconFabric</title><path class="cls-1" d="M416.36,489.4a18.65,18.65,0,0,1-2.6-.21c-8-1.75-14.23-.63-20,6.69S378.88,503,370,501.34c-20.16-3.71-36.85-13.86-50.51-28.52-6.58-7.07-13.18-15.29-12.67-26.05a38.55,38.55,0,0,1,3.44-12.88c1.66-3.9,1.69-6.79-.59-10.65-5.91-10-10.68-20.84-8.15-32.66,1.3-6.06,5.06-11.8,8.52-17.15,12.68-19.59,25.66-39,38.6-58.4q18.25-27.4,36.64-54.72c12.11-18.09,24.15-36.22,36.32-54.27q7.88-11.7,16.14-23.15c6.88-9.54,17.34-10.15,27.7-10.36,4.62-.09,9.25,1.08,13.89,1.21a6.91,6.91,0,0,0,5-2c11.07-14,25.31-11.8,39.6-7.54,17,5.07,30.75,15.47,42.34,28.62a43.88,43.88,0,0,1,10.78,24.9c.31,3.13-1.54,6.72-3.12,9.72-2.24,4.26-1.55,7.67.82,11.69,5.93,10.09,9.27,21,7.83,32.86-.36,2.94-2.22,5.85-3.91,8.45-17.49,26.85-34.94,53.73-52.68,80.41q-26.18,39.38-52.9,78.4c-9.91,14.5-20.21,28.74-30.48,43-1.24,1.72-3.24,3.54-5.19,4-6.92,1.6-14,2.63-21,3.87ZM311.22,394.94c.42,2.47.72,4.53,1.12,6.58,2.27,11.79,9.77,20.59,17.47,29,16.62,18.11,36.68,31.48,59.35,40.9,10.69,4.44,21.83,7.27,33.46,7.26a15.1,15.1,0,0,0,8.62-2.86,43.84,43.84,0,0,0,9.3-9.76q26.07-37.88,51.75-76c13.45-19.91,26.71-39.95,40.08-59.91q11.06-16.5,22.23-32.92c1.88-2.76,2.54-5.27-1.36-6.54-3.12-1-6.44-1.42-9.64-2.24-9.4-2.4-19.31-3.67-28.07-7.54-26.22-11.6-49.8-27.17-67.35-50.49-3.09-4.11-5.34-8.85-8.39-13a16,16,0,0,0-6.14-5c-.9-.4-3.45,1.38-4.37,2.75-10,15.08-19.73,30.35-29.73,45.42-10.3,15.52-20.84,30.89-31.28,46.32C358,322,347.73,337.16,337.54,352.35Q325,371,312.77,389.82C311.79,391.33,311.67,393.4,311.22,394.94ZM540.63,258.28c-1.91,0-3.82.08-5.73,0a28.46,28.46,0,0,1-6.23-.65c-19.36-5.51-36.22-14.94-49.09-30.9-8.9-11-13-22.64-7.06-36.55,2.13-5-.19-7.69-5.62-7.42-3.3.17-6.58.69-9.88.89-7,.42-13.29,6.67-12.07,13.54a52.82,52.82,0,0,0,6,17c9.36,16.13,23.11,28.14,38.32,38.6,19.43,13.36,39.93,24.06,63.91,26.46,6.46.65,15.62-3.08,18-7.57,2.63-5.05.68-18.3-3.52-22.29-2.54-2.41-5.77-4.31-8.4-.37C554.7,255.79,548.8,259.14,540.63,258.28ZM511.07,172.1c-3.31.33-5.92.56-8.51.85-5.6.63-8.43,3.85-6.82,9.26a46.9,46.9,0,0,0,6.48,13.33c6.09,8.69,14.56,14.66,23.57,20.25,8.41,5.22,17.43,7.81,26.87,9.39a11.55,11.55,0,0,0,7.9-1.62c2.23-1.6,5-5,4.64-7.13-.84-4.65-2.56-9.82-5.62-13.26a133.32,133.32,0,0,0-20.23-18.73C530.82,178.17,521.19,173.55,511.07,172.1Zm25.69,76c3.45-.92,6.23-1.1,8.35-2.38s3.57-3.65,5.32-5.54c-2.17-1.67-4.11-4.27-6.55-4.88-22.38-5.59-40.39-17.43-53.92-36.17-1-1.42-3.6-3-4.84-2.65-1.76.57-4.09,2.9-4.13,4.52-.08,3.5.26,7.56,2,10.46,7.79,13.12,19.47,22.31,32.8,29.15C522.5,244.08,530.09,245.81,536.76,248.13Zm-158,244.29c2.81-2.22,6.05-3.58,6.71-5.73.46-1.48-2.58-4.13-4.23-6.11-.49-.58-1.62-.58-2.38-1-9.25-5.12-18.87-9.69-27.62-15.57-8.32-5.59-15.58-12.75-23.62-18.79-2.15-1.61-5.47-1.67-8.25-2.43-.12,2.59-1.13,5.59-.17,7.68a56.35,56.35,0,0,0,8,13c7.16,8.39,15.56,15.58,25.81,19.91C361.23,486.86,369.84,489.35,378.72,492.42Z" transform="translate(-39.17 -57.83)"/><path class="cls-2" d="M310.79,150.68c-9.42,9.56-18.65,19.31-28.16,28.78-22.11,22-44.6,43.64-66.38,66-8.62,8.83-18.47,12.5-30.35,12.48-28.6-.06-57.19,0-85.79,0a26.79,26.79,0,0,1-8.23-1c-7.92-2.61-10.45-11.44-6.38-18.59,3.77-6.62,10-6,15.61-6,23.87-.12,47.75.36,71.63.47,5.21,0,10.44-.45,15.64-.94s10.65-5.52,11.25-10.19c.57-4.45-2.82-9.63-8.11-11.57a22.73,22.73,0,0,0-7.66-1.17q-44.46-.12-88.93,0a36.78,36.78,0,0,0-25.65,9.82c-9.13,8.29-12.11,21.55-7.18,34.56,3.2,8.44,16.81,19.68,27.11,19.42,19.52-.49,39.06-.14,58.58-.14v0c19.7,0,39.41,0,59.11,0,4.9,0,9.28-1,12.87-4.62,9.64-9.81,19.37-19.51,29-29.29q32.5-32.88,65-65.77c4.78-4.82,9.93-9.29,14.8-14,4-3.92,3.89-8.86-.16-11A15,15,0,0,0,310.79,150.68Z" transform="translate(-39.17 -57.83)"/><path class="cls-2" d="M190.35,183.6c12.21,0,22.2,4.64,28.51,15.24,3.14,5.26,5,11.28,7.29,17,1.87,4.78,4.86,5.65,8.67,2.17,1.41-1.29,2.64-2.79,4-4.15q17.34-17.41,34.71-34.79c21.62-21.55,43.52-42.82,64.81-64.69,11.25-11.55,9.43-28.56-2.87-38.83-7.57-6.32-16.53-8.06-25.88-8.18-18.14-.22-36.28-.07-54.42-.07v-.07c-18.14,0-36.28.14-54.42-.08a20,20,0,0,0-15.35,6.41c-17.51,17.72-35.17,35.3-52.78,52.92-15.53,15.53-31.16,31-46.49,46.69-1.87,1.92-2.15,5.4-3.17,8.16,2.48.75,5,2.14,7.45,2.15C123.72,183.66,157,183.6,190.35,183.6Z" transform="translate(-39.17 -57.83)"/><path class="cls-2" d="M349.84,154.12c-4.23-3.75-7.13-1.12-10.2,2Q280.84,214.92,222,273.74a12.45,12.45,0,0,1-9.67,4c-20.23-.16-40.47-.07-60.7-.07-16.92,0-33.84.06-50.76,0-8.27,0-16.23.2-24.42-3.51-10.95-5-17.7-12.23-20.62-23.64-1.83-7.12-1.18-14,0-21.2,1.88-11.85,15.85-25.52,28.09-25.74,35.21-.62,70.44-.77,105.65-.76,9.73,0,15.44,6.52,15.56,16.09.12,10-5.27,16.09-15.2,17-1.91.17-3.83.11-5.75.11-26.51,0-53-.1-79.54.08a29.82,29.82,0,0,0-11.09,2.29,7,7,0,0,0-3.39,5.58c.19,2.12,2.12,4.65,4,5.89,1.68,1.1,4.36.91,6.6.91,29.13,0,58.26.17,87.39-.14A33.83,33.83,0,0,0,202,247.22c21.66-10.48,23.91-37.72,4.81-52.42-7.78-6-16.79-6.72-25.79-6.82q-41.86-.47-83.72,0c-14.23.15-27.79,2.46-39.3,12.51-14,12.22-22.26,34.85-17.51,51.39,7.18,25,26.46,40.26,52.59,40.48,40.81.33,81.63.22,122.45-.08,3.8,0,8.17-2,11.25-4.39,5.75-4.47,10.88-9.79,16-15q35.57-35.8,71-71.71c11.78-11.88,23.67-23.66,35.39-35.6C353.26,161.49,353.3,157.19,349.84,154.12Z" transform="translate(-39.17 -57.83)"/><path class="cls-3" d="M373.89,155.78c-2.27-6.13-7.5-8.32-13.31-9.67-3.69-.86-7.52-1.39-11-2.77-10.33-4.06-10.31-5-2.47-13.19,7.52-7.85,16.38-14.49,20.12-25.59,3.06-9.1-.19-23.29-7.2-30-10.25-9.84-22.7-13.06-36.23-13.12-36.45-.16-72.91-.08-109.37,0a23.43,23.43,0,0,0-17.63,7.52C175,91.21,152.71,113.1,130.65,135.16c-21.33,21.33-42.73,42.6-63.9,64.07-17.88,18.13-22.07,39.84-12.61,62.91,9.16,22.33,27,35,50.83,35.48,21.27.42,42.56.09,63.84.09v.06c21.45,0,42.91-.1,64.36.06a21.2,21.2,0,0,0,15.64-6c4.38-4.24,8.41-8.84,12.72-13.16Q301,239.1,340.64,199.56,355.25,185,370,170.45C374.23,166.27,376,161.54,373.89,155.78Zm-29.44-8c4,2.11,4.19,7.05.16,11-4.87,4.74-10,9.2-14.8,14q-32.56,32.82-65,65.77c-9.66,9.78-19.4,19.48-29,29.29-3.59,3.66-8,4.63-12.87,4.62-19.7-.05-39.41,0-59.11,0v0c-19.53,0-39.07-.35-58.58.14-10.29.26-23.9-11-27.11-19.42-4.93-13-2-26.26,7.18-34.56a36.78,36.78,0,0,1,25.65-9.82q44.46,0,88.93,0a22.73,22.73,0,0,1,7.66,1.17c5.29,1.95,8.68,7.12,8.11,11.57-.6,4.67-6,9.69-11.25,10.19s-10.42,1-15.64.94c-23.88-.11-47.75-.6-71.63-.47-5.59,0-11.84-.61-15.61,6-4.07,7.15-1.54,16,6.38,18.59a26.79,26.79,0,0,0,8.23,1c28.6.06,57.19,0,85.79,0,11.88,0,21.73-3.65,30.35-12.48,21.78-22.32,44.28-44,66.38-66,9.51-9.47,18.74-19.22,28.16-28.78A15,15,0,0,1,344.44,147.83ZM102.12,173.22c15.33-15.73,31-31.16,46.49-46.69,17.61-17.62,35.27-35.2,52.78-52.92a20,20,0,0,1,15.35-6.41c18.14.21,36.28.08,54.42.08v.07c18.14,0,36.28-.16,54.42.07,9.35.12,18.31,1.86,25.88,8.18,12.3,10.27,14.12,27.28,2.87,38.83-21.29,21.86-43.19,43.14-64.81,64.69q-17.4,17.35-34.71,34.79c-1.35,1.36-2.58,2.85-4,4.15-3.81,3.48-6.8,2.61-8.67-2.17-2.25-5.76-4.15-11.78-7.29-17-6.32-10.6-16.3-15.24-28.51-15.24-33.32,0-66.63.07-99.94-.07-2.49,0-5-1.4-7.45-2.15C100,178.62,100.24,175.14,102.12,173.22Zm263.14-7.66c-11.72,11.94-23.61,23.71-35.39,35.6q-35.53,35.84-71,71.71c-5.16,5.19-10.28,10.51-16,15-3.08,2.39-7.45,4.37-11.25,4.39-40.81.3-81.63.42-122.45.08C83,292.12,63.7,276.87,56.52,251.85,51.77,235.31,60,212.68,74,200.47c11.51-10,25.07-12.35,39.3-12.51q41.86-.45,83.72,0c9,.1,18,.84,25.79,6.82,19.11,14.69,16.85,41.93-4.81,52.42a33.83,33.83,0,0,1-13.91,3.38c-29.13.31-58.26.18-87.39.14-2.24,0-4.92.19-6.6-.91-1.9-1.24-3.82-3.77-4-5.89a7,7,0,0,1,3.39-5.58,29.82,29.82,0,0,1,11.09-2.29c26.51-.17,53-.08,79.54-.08,1.92,0,3.85.06,5.75-.11,9.93-.89,15.32-6.94,15.2-17-.11-9.57-5.83-16.09-15.56-16.09-35.22,0-70.44.14-105.65.76-12.24.22-26.21,13.89-28.09,25.74-1.14,7.18-1.79,14.08,0,21.2,2.93,11.41,9.68,18.68,20.63,23.64,8.19,3.71,16.15,3.47,24.42,3.51,16.92.08,33.84,0,50.76,0,20.23,0,40.47-.09,60.7.07a12.45,12.45,0,0,0,9.67-4q58.75-58.9,117.64-117.67c3.07-3.07,6-5.7,10.2-2C369.3,157.19,369.26,161.49,365.26,165.56Z" transform="translate(-39.17 -57.83)"/><path class="cls-4" d="M378.72,492.42c-8.88-3.08-17.49-5.56-25.69-9-10.25-4.33-18.65-11.51-25.81-19.91a56.35,56.35,0,0,1-8-13c-1-2.09,0-5.09.17-7.68,2.78.77,6.1.82,8.25,2.43,8,6,15.3,13.19,23.62,18.79,8.74,5.88,18.36,10.45,27.62,15.57.75.42,1.89.41,2.38,1,1.65,2,4.68,4.63,4.23,6.11C384.77,488.84,381.53,490.2,378.72,492.42Z" transform="translate(-39.17 -57.83)"/><path class="cls-5" d="M168.77,402.73a394.77,394.77,0,0,1-56.86-4c-5.12-.71-8.25-3.93-7.66-7.45.65-3.88,4.78-5.92,9.83-5.16,26.23,3.92,52.49,6,79,2.8,7.24-.87,14.59-1.05,21.83-2.23a18.17,18.17,0,0,1,3.49-.09c3.64.12,6.19,1.81,6.46,5.57s-2,5.64-5.59,6.45c-8.82,2-17.85,1.89-26.77,2.94A160.94,160.94,0,0,1,168.77,402.73Z" transform="translate(-39.17 -57.83)"/><path class="cls-5" d="M161.07,482.74c-12.43.87-28.57-1.78-44.78-3.26a19.86,19.86,0,0,1-8.12-2.27c-2.24-1.27-3.49-3.22-3-5.79a5.39,5.39,0,0,1,5.21-4.58,19.13,19.13,0,0,1,4.45.32,323.74,323.74,0,0,0,100.23.2c.49-.08,1-.21,1.47-.29,3.94-.59,7.36.37,7.94,4.7s-2.59,6.06-6.35,6.87c-7.66,1.66-15.49,1.88-23.22,3C185,483,175,482.56,161.07,482.74Z" transform="translate(-39.17 -57.83)"/><path class="cls-5" d="M167,503.65c-11.54,0-21-.72-30.4-1.37-8.28-.57-16.46-1.39-24.63-2.64-5.38-.82-8.68-4.08-8.06-7.73.73-4.32,5.28-7,10.46-5.85,12.87,3,26,3,39,3.61,18.78.94,37.48-.27,56.16-2.09a26.31,26.31,0,0,0,5.83-1.24c4.13-1.4,7.14.39,9.74,3.25,2,2.16,2,4.41-.17,6.62a11.54,11.54,0,0,1-6.44,3.55c-6.07,1-12.13,2.58-18.23,2.7C188.46,502.69,176.72,504.62,167,503.65Z" transform="translate(-39.17 -57.83)"/><path class="cls-5" d="M146,442.68c-12.16,1.15-23.82-2.09-35.6-4.14-3.54-.62-6.26-2.69-6-6.75.24-3.83,4.08-6.68,8.37-5.92A186.3,186.3,0,0,0,132,428.66c11.54.73,23.06,1.92,34.64,1.49,5.78-.21,11.59.57,17.35-.48A139.49,139.49,0,0,0,213.67,427a24.37,24.37,0,0,1,4.46-.37c3.73-.1,6.24,1.75,6.51,5.42.25,3.35-1.93,5.7-5.13,6.44-11,2.56-22.08,4.9-33.51,4.15-7.9,1.08-15.83.38-23.75.42C156.84,443.13,151.37,443.76,146,442.68Z" transform="translate(-39.17 -57.83)"/><path class="cls-5" d="M167.58,423.64c-19.52.33-36.48-2.14-53.49-3.91a20.7,20.7,0,0,1-4.36-1c-4.56-1.52-6.25-4.28-5.14-8.2,1.21-4.24,4.33-5.18,8.19-4.58a330.16,330.16,0,0,0,96.75,1c2.8-.39,5.61-.64,8.43-.89,3.42-.3,5.7,1.26,7.07,4.35,1.46,3.3-.3,5.35-2.63,7.26-2.92,2.38-6.6,2.59-10,2.7C196.65,420.84,181.13,425,167.58,423.64Z" transform="translate(-39.17 -57.83)"/><path class="cls-5" d="M277,455.77c-7.31,7.5-16.18,9.33-26.1,7-6.79-1.57-13-5.2-20.12-5.67a18.34,18.34,0,0,0-4.95-.07c-21.1,4.53-42.53,5.69-64,5.35-16.58-.26-33.25-.57-49.65-3.86a15,15,0,0,1-6.25-2.91,1.69,1.69,0,0,1,0-2.35,3,3,0,0,1,1.62-.52c11.6,2.13,23.3,3.42,35,4.41a291.6,291.6,0,0,0,44.78.07A281.3,281.3,0,0,0,223,452.8c8-1.59,15.26.68,22.34,3.43C255,460,264.08,460,272.84,454c1.29-.88,2.59-1.53,4.15-.66A1.82,1.82,0,0,1,277,455.77Z" transform="translate(-39.17 -57.83)"/><path class="cls-5" d="M251,508.66c-5.93,5.7-13.8,7.3-21.26,9-28.8,6.47-58,7.28-87.36,5.19-13.44-1-26.86-2.06-40-5.06-8.62-2-17-4.61-24.25-10-8.3-6.24-8.18-15.17.26-21,3.27-2.26,6.32-5,10.64-5.07a1.66,1.66,0,0,1,.52,1.24c-2.4,3.23-6.25,4.61-9.21,7.17-4.89,4.23-5.31,5-2.19,10.55l1,1.19c8.43,8.27,18.94,11.82,30.25,13.88,22.32,4.08,44.84,4.88,67.44,4.42,11.12-.23,22.21-1.21,33.27-2.35a18.06,18.06,0,0,0,8-2.55,10.59,10.59,0,0,1,5.84-.42,10.15,10.15,0,0,0,7.65-1.23c5.13-3.44,11.38-3.15,16.75-5.62A2.14,2.14,0,0,1,251,508.66Z" transform="translate(-39.17 -57.83)"/><path class="cls-5" d="M124,380.68a130.65,130.65,0,0,1-39-7.25,22.55,22.55,0,0,1-9-5.26,10.3,10.3,0,0,1,1.16-15.62c5-3.84,10.93-5.88,16.85-7.18,11.15-2.46,22.38-4.91,33.94-4.71,9.1-.45,18.16-1.49,27.29-1.51,15.94,0,31.87-.13,47.76,1.51v0a1.29,1.29,0,0,1-.27,1.64c-5.53,1.82-11.24,1.14-16.78.63-15.31-1.42-30.56-.72-45.82.44-10.17.77-20.33,1.62-30.49,2.48-3.87.33-6.74,2.65-10.13,3.82a37.37,37.37,0,0,0-17,5c-2.41,1.45-5,3-4.89,6.36s2.65,4.73,5.47,5.68a50.49,50.49,0,0,1,6.95,3.88c1.37.92,2.8,2.14,4.43,2.14,11,0,21.32,6.24,32.63,4a6.83,6.83,0,0,1,3,.16c9.75,2.46,19.69,2.43,29.65,2.36,3.36,0,3.36.12,3.87,2.86A278.25,278.25,0,0,1,124,380.68Z" transform="translate(-39.17 -57.83)"/><path class="cls-5" d="M124,380.68c13.37.19,26.7,1.61,40.09,1,2.05-2,4.69-2.32,7.36-2.38,9.95-.23,19.86-.15,29.81-1.51,5.3-.72,10.88-.44,16.3-1,2.45-.27,5-.56,7.13-2,1.67-.86,3.51-.69,5.31-.92,8-1,15.62-3,21.59-9,2.8-2.84,2.74-5.43.14-8.2a22.47,22.47,0,0,0-9-5.75c-11-4.09-22.5-5.26-34-6.77-2-.27-4.39-.22-5.72-2.37l0-1c14.66.64,29.14,2.41,43,7.37,5.91,2.1,11.93,5,12.66,12s-5.18,10.09-10.39,12.6c-10.79,5.2-22.63,6.52-34.33,8-24,3-48.17,2.13-72.28,2A75.88,75.88,0,0,1,124,380.68Z" transform="translate(-39.17 -57.83)"/><path class="cls-5" d="M89,482.65q0-.49,0-1c1.38-.56,2.73-1.48,4.15-1.61,3.14-.29,6.19.4,7.44,3.71s-.31,6-3.24,7.52-6.07,2.72-9.12,4c-1.18.51-2.83.68-2.54,2.5.23,1.44,1.45,2.11,2.79,2.56a180.07,180.07,0,0,0,37.42,8.27c23.89,2.68,47.82,2.47,71.76.87,4.8-.32,9.56-1.23,14.34-1.87a14.73,14.73,0,0,1,8.12,0c-.3,3.06-2.58,3.63-5,3.65a22.82,22.82,0,0,0-9.67,1.83c-2.43,1.12-5.25,1-7.87.73a134.62,134.62,0,0,0-29.31.21,54.72,54.72,0,0,1-12.92-.36c-5.43-.7-10.92-1-16.35.23-3.83.89-8,.86-11.3-.57-6.43-2.81-13.07-1.73-19.57-2.6a45.22,45.22,0,0,1-6.88-1.06c-4.24-1.92-8.82-2.94-13-5-3-1.49-6-2.77-6.37-6.84-.39-4.35,2.75-5.63,5.67-7.22.58-.32,1.16-.64,1.73-1s-.13.12.39-.27c1.61-1.2,5-.53,4.94-3.06-.05-1.91-3.28-1.33-4.75-2.53A2.52,2.52,0,0,1,89,482.65Z" transform="translate(-39.17 -57.83)"/><path class="cls-5" d="M105.88,453.69l.13,2c-2.47-1.76-2.12-3.95-.82-6.16s3.11-3.81,6.08-3.47c9.09,1,18.22,1.75,27.29,2.92,20.79,2.69,41.5,1.78,62.22-.72,7.26-.88,14.48-1.82,21.7-3.12,10.47-1.88,20.44.86,29.49,6.58a2.84,2.84,0,0,1-2.25,1.25,11.33,11.33,0,0,1-4.76-1.15c-9.55-3.92-19.27-5-29.17-1.2-3.21,1.22-6.6.17-9.89.67-12.55,1.91-25.19,2-37.85,1.94-15.15,0-30.25-.27-45.36-2C117.18,450.58,111.09,450.31,105.88,453.69Z" transform="translate(-39.17 -57.83)"/><path class="cls-5" d="M251,508.66c-10.28,4.37-20.54,8.81-32,9a1.53,1.53,0,0,1-.41-1.29c2.06-2.76,5.21-3.34,8.26-3.91a70.61,70.61,0,0,0,16.25-4.76,24.32,24.32,0,0,0,7.56-4.76c4-4,4-8-.35-11.49-3.86-3.08-8-5.73-13.57-5.65.9,3,5.33,2.48,4.95,6a2,2,0,0,1-.8,1.24,3.3,3.3,0,0,1-2.91-.39,7.57,7.57,0,0,1-5-2c-3.55-1.08-4.6-3.75-3.71-6.94s3.68-4.16,6.73-3.56c7.68,1.51,14.92,4,20,10.46C260,498.91,259,502.3,251,508.66Z" transform="translate(-39.17 -57.83)"/><path class="cls-5" d="M203,340.64a708,708,0,0,0-75,0c6-1.71,12.21-1.7,18.28-1.81,17.47-.32,35-.74,52.42.87A35,35,0,0,1,203,340.64Z" transform="translate(-39.17 -57.83)"/><path class="cls-5" d="M250,451.71l2,0c6.72.45,13.23,0,19.08-3.93a4.23,4.23,0,0,1,6.19,1c1.77,2.32,2.4,4.76-.2,7q0-1,0-2.09c-2.84-1.92-5.6-1.2-8.36.23-4.29,2.23-8.75,3.94-13.68,2.9-2.28-.48-5.12-.49-5.65-3.76A2.18,2.18,0,0,1,250,451.71Z" transform="translate(-39.17 -57.83)"/><path class="cls-5" d="M238,492.68l3,0c3.76-1.19,5.62,1.35,6.87,4,1.13,2.42-.9,4.17-2.74,5.18-7.16,4-15,5.78-23.06,7a2.38,2.38,0,0,1-2.07-1.18h-8c5.64-1.23,11.24-2.79,16.95-3.58,4.38-.61,8.14-2.77,12.3-3.81,1.27-.32,2.68-.85,2.89-2.38s-1.29-2.12-2.38-2.81Z" transform="translate(-39.17 -57.83)"/><path class="cls-5" d="M256,490.66a41.06,41.06,0,0,0-17.2-9.24c-2.94-.72-6-1.63-8,1.55s-.22,5.62,2.18,7.73c-3.25-.3-4.67-2.32-4.73-5.34-.06-2.86,1.62-4.63,4.26-5.42C238.89,478,252.81,484.39,256,490.66Z" transform="translate(-39.17 -57.83)"/><path class="cls-5" d="M184,429.67a8.73,8.73,0,0,1-4.33,1c-14.8.35-29.57-.17-44.34-1.07a16.42,16.42,0,0,1-3.33-.91C149.32,429.22,166.64,430,184,429.67Z" transform="translate(-39.17 -57.83)"/><path class="cls-5" d="M146,442.68h40c-2.64,1.44-5.52.93-8.31,1-8.8.05-17.6,0-26.4,0A10.23,10.23,0,0,1,146,442.68Z" transform="translate(-39.17 -57.83)"/><path class="cls-5" d="M164.58,400.55c-15.88,1.13-32.19-1.67-48.58-3.11a26.27,26.27,0,0,1-6.72-1.79c-1.58-.59-3-1.78-2.75-3.74a3.47,3.47,0,0,1,3.9-3.12c4.14.16,8.29.5,12.41,1a337.4,337.4,0,0,0,92-.83,18,18,0,0,1,2.48-.24c2.47,0,4.92.41,5.32,3.34s-1.7,4.16-4.23,4.52c-7.24,1-14.48,2.16-21.76,2.88A217.75,217.75,0,0,1,164.58,400.55Z" transform="translate(-39.17 -57.83)"/><path class="cls-5" d="M126,478.67c-4.6-.72-9.21-1.4-13.81-2.18-2.54-.43-5.34-1.11-4.72-4.5.58-3.15,3.19-3.37,5.91-2.92a303.43,303.43,0,0,0,59.57,4.39c14.25-.47,28.58-1,42.71-3.43.16,0,.33-.07.49-.08,2.36-.24,5.22-.64,5.91,2.2s-2,3.91-4.28,4.51c-4.51,1.18-9.07,2.21-13.79,2-5.27,1.39-10.74-.46-16,1h0c-4.93,1.4-10.07-.38-15,1H160c-2.23-1-4.58-.41-6.87-.46C144.06,480,135,479,126,478.67Z" transform="translate(-39.17 -57.83)"/><path class="cls-5" d="M126,478.67c10.1-.66,20.12,1.12,30.2,1.07a16.35,16.35,0,0,1,3.81.9c-10.27.69-20.44-1.31-30.69-1.1A12.48,12.48,0,0,1,126,478.67Z" transform="translate(-39.17 -57.83)"/><path class="cls-5" d="M188,479.66c5.23-2,10.67-.58,16-1C198.76,480.61,193.32,479.27,188,479.66Z" transform="translate(-39.17 -57.83)"/><path class="cls-5" d="M173,480.64c4.9-1.93,10-.6,15-1C183.09,481.61,178,480.28,173,480.64Z" transform="translate(-39.17 -57.83)"/><path class="cls-5" d="M165.09,501.54c-16.37.9-32.57-.89-48.74-3a27.45,27.45,0,0,1-6.33-1.33c-2.34-.91-4.8-2.41-4.22-5.4s3.24-4.17,6.13-3.9c5.13.48,10.23,1.26,15.34,1.85a339.45,339.45,0,0,0,88.54-1.34,11.49,11.49,0,0,1,3.94-.1,4.71,4.71,0,0,1,3.81,3.55c.5,2.07-.63,3.52-2.17,4.68a11.47,11.47,0,0,1-5.59,2C199,500.67,182.11,502.48,165.09,501.54Z" transform="translate(-39.17 -57.83)"/><path class="cls-5" d="M163.69,441.71c-16.52-1.13-32.66-1.81-48.65-4.2a23.7,23.7,0,0,1-4.38-1c-2.46-.87-4.93-2.16-4-5.29a4.63,4.63,0,0,1,6-3.21c7.14,1.93,14.49,2,21.75,2.87a281,281,0,0,0,68.73-.72c4.78-.63,9.59-1.08,14.4-1.48,2.42-.21,5,.08,5.63,2.93.72,3.2-1.84,4.36-4.25,5.2-5.74,2-11.82,2-17.76,2.55C188.56,440.42,175.91,441,163.69,441.71Z" transform="translate(-39.17 -57.83)"/><path class="cls-5" d="M106.83,410.52l1.2-1.83c4.19-1.7,8.19.31,12.2.82,18.81,2.39,37.7,4,56.6,2.93,12.7-.71,25.55-.68,38.09-3.46a9.94,9.94,0,0,1,2.47-.3c2.49.08,5.55-.21,5.93,3.08s-2.23,5-5,5.17c-3.48.28-6.83,1.45-10.35,1.33-19.78,2.39-39.61,2.73-59.52,2.09-12.28-.4-24.37-2.06-36.49-3.74C108.53,416.13,105.82,414.87,106.83,410.52Z" transform="translate(-39.17 -57.83)"/><path class="cls-5" d="M208,417.66c3.62-.54,7.28-.88,10.83-1.68,1.92-.44,4-1.66,3.49-4.14s-2.76-2.38-4.5-2.11c-8.56,1.33-17.2,1.67-25.79,2.5a290.55,290.55,0,0,1-51.31.11c-11-.88-21.75-2.74-32.67-3.65,4.58-2.62,9.21-.31,13.65.24a341.83,341.83,0,0,0,50.23,2.64c14.27-.34,28.56-.9,42.68-3.34a17.43,17.43,0,0,1,3.45-.43c2.85.09,5.54.85,5.69,4.26.14,3.12-1.94,4.92-4.85,5.4-3.6.59-7.25.85-10.88,1.26a.64.64,0,0,1-.26-.7Q207.86,417.66,208,417.66Z" transform="translate(-39.17 -57.83)"/><path class="cls-5" d="M208,417.66v1.06c-4.08.61-8.14,1.5-12.24,1.8-27.7,2-55.32,1.45-82.81-2.9-5.57-.88-7-2.38-6.12-7.1.42,3.28,2.3,4.54,5.57,5.21,21.79,4.44,43.83,4.23,65.87,3.83C188.18,419.38,198.08,418.32,208,417.66Z" transform="translate(-39.17 -57.83)"/><path class="cls-5" d="M249.92,452.74c6.89,3.49,13.12,1.59,19.31-2.09,4.84-2.88,6.29-2.17,7.76,3-9.88,9.09-21,10.14-32.83,4.64-10.32-4.8-20.76-3.08-31.29-1.33a298.71,298.71,0,0,1-55.72,3.55c-15.3-.35-30.49-2.5-45.72-4a5.81,5.81,0,0,1-4.44-2.88c-.36-4.38,1.66-6.32,6.11-5.38,5.51,1.16,11.1,1.75,16.63,2.71a96.06,96.06,0,0,0,13.88,1.08c20.75.59,41.52,1,62.18-1.51,8.54-1,16.93-3.28,25.64-2.93A44,44,0,0,1,249.92,452.74Z" transform="translate(-39.17 -57.83)"/><path class="cls-5" d="M249.92,452.74c-14-5.41-28.21-4.87-42.6-1.55a76.7,76.7,0,0,1-13.85,1.41c-19.07.82-38.16.55-57.23,0-7.47-.23-14.84-1.73-22.15-3.35-3.84-.85-6.67-.12-7.09,4.45l-1.12,0c.21-4.86,2.15-6.46,7.33-5.83,8.57,1,17.08,2.49,25.73,3,26,1.64,51.87,1.69,77.52-3,11.75-2.13,22.79-1.42,33.52,3.78Z" transform="translate(-39.17 -57.83)"/><path class="cls-5" d="M241,491.64c-2.42-1.07-4.9-2-7.25-3.25-1.52-.78-2.82-2.06-2.16-4a3.4,3.4,0,0,1,4.38-2.32c6.26,1.73,12.43,3.81,17.23,8.44s4.54,8.59.12,13.38a25.58,25.58,0,0,1-9,6c-8.11,3.47-16.66,5.3-25.33,6.71-10.28,3-20.93,3.47-31.48,3.82-21.55.73-43.14,1.19-64.59-1.77-10.51-1.45-21-3-31.13-6.43a47.58,47.58,0,0,1-16.71-9.66,7.48,7.48,0,0,1-.12-.93c-1.93-5.51.29-9.56,4.46-13s9.15-5.2,14.31-6.44a4.36,4.36,0,0,1,5.39,2.48c1,2.24-1.09,3.22-2.27,4.46-1.57,1.65-4,1.4-5.86,2.48-2.45,1.68-6.69,1.69-6.78,5.63-.1,4.32,4.18,4.6,7,5.88,3.13,1.42,6.5,2.31,9.77,3.44a292.16,292.16,0,0,0,31.34,4.77c10.08.93,20.18,1.59,30.24,1.6,18.73,0,37.52-.45,56-4,7.94-1.51,15.92-3.26,23.36-6.69,2.27-1,5.31-1.89,5.5-4.53.21-2.93-2.92-4.06-5.15-5.41C241.86,492.15,241.41,491.92,241,491.64Z" transform="translate(-39.17 -57.83)"/><path class="cls-5" d="M75.08,502.62c10.59,7.86,22.83,11.5,35.61,13.4,13,1.93,26,3.68,39.18,3.81,17.12.16,34.19.16,51.27-1.12,6-.45,11.78-2.4,17.84-2.05v1c-12.35,3.31-25.07,3.48-37.67,3.84-23.81.67-47.64.61-71.19-3.89-9.34-1.78-18.66-3.64-27.06-8.42C80,507.48,76.93,505.8,75.08,502.62Z" transform="translate(-39.17 -57.83)"/><path class="cls-5" d="M91,491.68c1.72-1,3.5-1.89,5.16-3,1.25-.83,2.57-1.89,2-3.65S95.83,482.87,94,483c-10.58.66-18.36,8.27-19.06,18.71-2.46-5.32-1.54-9.27,3.18-13a36.38,36.38,0,0,1,10.85-6c1.64-.29,3.27-.65,4.92-.84,2.5-.28,4.8.22,5.61,3,.74,2.53-1,4-2.83,5.31A9.45,9.45,0,0,1,91,491.68Z" transform="translate(-39.17 -57.83)"/><path class="cls-5" d="M80,368.71c-8.36-5.83-7-11.88,1.8-16.59,4.69-2.52,9.66-4.5,15.14-4.6a138.44,138.44,0,0,1,30.87-4.75c28.53-1.55,57.09-2.22,85.55,1,12,1.35,24.07,2.7,35.17,8.07,3.89,1.88,8.47,3.72,8.3,8.87s-4.3,7.63-8.49,9.46a73.05,73.05,0,0,1-22.42,6c-19.62,3.64-39.52,4.2-59.35,4.24-21.35.05-42.77-.92-63.9-4.46A79.67,79.67,0,0,1,80,368.71Z" transform="translate(-39.17 -57.83)"/><path class="cls-5" d="M226,375.67c7.83-1.52,15.65-3.13,22.87-6.63,3.47-1.68,6.86-4,7-8.36s-3.62-6.11-6.85-7.73c-8.6-4.31-18-5.6-27.37-7.19-28.42-4.84-57.08-2.91-85.65-2.9-13.13,0-26.06,3-39.07,4.67,6.62-4.18,14.34-4,21.61-4.64a519.39,519.39,0,0,1,59.14-2.18c8.45.19,16.87,1.45,25.35,1,15.45,1.84,31.09,2.82,45.57,9.33,4.29,1.93,9,4.29,9,9.62s-4.62,8.23-9.05,10.21c-7.13,3.19-14.54,5.58-22.47,5.86q-.54-.34-.36-.68C225.75,375.78,225.87,375.67,226,375.67Z" transform="translate(-39.17 -57.83)"/><path class="cls-5" d="M226,375.67v1c-6.38,2.16-13.07,2.43-19.67,2.86-14.08.92-28.18,1.41-42.28,2.08-2.66-1.35-5.53-.87-8.32-.91-20.9-.3-41.73-1.19-62.15-6.21-4.83-1.19-9.6-2.67-13.63-5.81,3.79.08,6.83,2.45,10.38,3.36a227,227,0,0,0,50.21,6.72c10.79.31,21.58,1.39,32.36.78,15.73-.89,31.57-.3,47.13-3.57A38.5,38.5,0,0,1,226,375.67Z" transform="translate(-39.17 -57.83)"/><path class="cls-5" d="M241,491.64a5.17,5.17,0,0,1,1.47.25c2.5,1.25,5.76,2.24,5.89,5.4s-3,4.13-5.33,5.33c-11,5.58-23.17,7.33-35.13,8.78a330.58,330.58,0,0,1-55.79,2.19c-15.76-.76-31.51-2-47-5.26a23,23,0,0,1-4.11-1.71c10.29.8,20.35,3.19,30.64,4.17,19.26,1.82,38.52,1.33,57.78.76,10.28-.31,20.57-1.19,30.58-3.89,7-1.36,13.9-2.82,20.47-5.61,2.23-.95,5.38-1.32,5.68-4.13.34-3.2-3-3.89-5.16-5.27Z" transform="translate(-39.17 -57.83)"/><path class="cls-5" d="M161.15,499.64c-12,1.36-26.69-1.12-41.44-2.15-3-.21-5.86-1.2-8.76-1.93-1.58-.4-2.78-1.37-2.56-3.18.26-2.1,1.91-2.67,3.68-2.54a67.16,67.16,0,0,1,9.41,1.1c12.63,2.77,25.44,3,38.27,2.71,13.31-.26,26.65.86,39.91-1q8.64-1.21,17.27-2.46c1.87-.27,4-.61,4.53,1.77.72,3-1.68,3.9-3.81,4.18-9.88,1.29-19.77,2.72-29.71,3.4C180,500.08,172,499.64,161.15,499.64Z" transform="translate(-39.17 -57.83)"/></svg>