<svg id="Layer_1" data-name="Layer 1" xmlns="http://www.w3.org/2000/svg" viewBox="0 0 488.81 497.08"><defs><style>.cls-1{fill:#717171;}.cls-2{fill:#727272;}.cls-3{fill:#e8e8e8;}.cls-4{fill:#fff;}.cls-5{fill:#fefefe;}.cls-6{fill:#fdfdfd;}</style></defs><title>IconArt</title><path class="cls-1" d="M72.1,348.78c-.27-110.24,85.6-198.4,188.64-200.89,24.8-.6,33.16,7.93,30.85,32.88-3,32.87-13.09,64.7-15,97.76-.47,8.34-1.16,16.76-.52,25.05,3.1,40.15-19.38,66.29-59.41,68.44-5,.27-10.44-.28-12.09,5.88-1.8,6.71,2.49,11.17,7.08,15.11,24.17,20.75,76.33,22.83,101.17,2.67,8.44-6.85,14.34-6.64,23.37-2.45,10.63,4.93,22.18,8.06,33.55,11.16,24.1,6.57,33.7,21.32,26.77,45.24-10.87,37.51-37.91,60.66-72.8,74.28C271.45,544.35,220.6,535.75,173,509.22,107.92,472.92,75.23,415.84,72.1,348.78Z" transform="translate(-72.1 -38.17)"/><path class="cls-2" d="M310.76,321.55c-.94-13.09,3.25-24.51,12.57-33.49C400.09,214.14,466.23,130.52,538.6,52.6a170.63,170.63,0,0,1,12.8-12.22c2.26-2,5.43-3.28,8-1,3.07,2.64.57,5.48-1.05,7.71-6.65,9.17-13.49,18.2-20.28,27.26-46.06,61.52-90.43,124.21-132,188.89-14.37,22.37-29.4,44.35-48.24,63.37-7.39,7.46-15.36,13.89-26.15,15.65C320.12,340.06,312.5,333.78,310.76,321.55Z" transform="translate(-72.1 -38.17)"/><path class="cls-2" d="M328.08,345.84c.79,31.11-19.16,53.88-49.83,56.35-20,1.61-39.2-1.77-57.05-11.24-3.77-2-9.15-4.27-8-9.29s6.66-2.78,10.23-2.84c23.73-.38,39.38-13.48,51-32.48,7.58-12.42,17.19-20,32.51-17.75C317.49,330,325.29,334.83,328.08,345.84Z" transform="translate(-72.1 -38.17)"/><path class="cls-3" d="M328.08,345.84c-5.57-7.6-13-12.84-21.2-17.25l3.87-7,21,20.69Z" transform="translate(-72.1 -38.17)"/><path class="cls-4" d="M202.13,411.68c25,.46,45.88,21.9,45.72,46.85-.16,25.62-22.12,47-47.65,46.39-25.08-.6-45.92-21.88-45.81-46.81C154.51,432.68,176.59,411.21,202.13,411.68Z" transform="translate(-72.1 -38.17)"/><path class="cls-4" d="M132.37,390.86a37.91,37.91,0,0,1-37.43-37.68c0-21.07,17.51-38,39-37.63a37.74,37.74,0,0,1,37.32,37.69C171.19,374.56,154,391.19,132.37,390.86Z" transform="translate(-72.1 -38.17)"/><path class="cls-5" d="M192.33,259.58a29.16,29.16,0,0,1-28,30,29.49,29.49,0,1,1,28-30Z" transform="translate(-72.1 -38.17)"/><path class="cls-6" d="M219.7,183c11.83,0,21.8,9.61,22,21.2.2,12-10.57,22.58-22.63,22.23A21.72,21.72,0,0,1,219.7,183Z" transform="translate(-72.1 -38.17)"/><path class="cls-1" d="M500.62,111c-23.82,34.64-48.35,68.81-71.26,104-20.09,30.89-39.79,62-62.21,91.27a195.3,195.3,0,0,1-15.75,17.5c-7.42,7.57-16.3,10.34-24.87,2.84s-8.75-17-3.1-26.76c9-15.61,23.38-26.46,35.73-38.83,22.21-22.26,42.85-45.84,63.75-69.23,24.78-27.73,49.75-55.29,74.63-82.92Z" transform="translate(-72.1 -38.17)"/></svg>