<svg id="Layer_1" data-name="Layer 1" xmlns="http://www.w3.org/2000/svg" viewBox="0 0 500.1 498.65"><defs><style>.cls-1{fill:#cecece;}</style></defs><title>IconWorkflow</title><path class="cls-1" d="M538,410.89c-18.94-35.61-58-56.82-97.58-53-40.51,3.87-75.9,32.07-86.11,72.09-4.07,15.94-11.28,18.74-26.19,19.81-35,2.52-66.48-4.52-95.58-24.18-10.61-7.17-22.58-12.3-33.85-18.5-28.47-15.66-33.12-16.84-36.18-14.66s-3.57,14.27-4.22,38.19c-.17,6.43-.23,11.92-4.12,15.54-5,4.65-13.18,3.13-16.43,2.76-40.47-4.63-72.22-40.07-71.2-80.42a79.28,79.28,0,0,1,74.52-77c17.71-1.08,35.55.2,53.29-.53a66.61,66.61,0,0,1,36.73,9c27.22,15.34,55,29.7,82.39,44.71,13.13,7.19,19.67,3.63,20-11.25.21-9.19.56-18.4.12-27.57-.54-11.17,4.39-15.17,15.31-14.88,19.6.52,39.22.15,58.83.15v-.16c19,0,38,.56,57-.11,45-1.59,80.87-35.72,84.24-79.46,3.6-46.64-26-87.28-72.35-93.23-23.51-3-43.19-12-63-22.83-12.9-7.06-25.82-14.09-38.82-21-34.47-18.21-43.89-30.44-41.29,23.19.65,13.41-4.28,18.29-18,18.09-45.34-.67-90.69-.4-136-.14-9.66.06-17.81-3.21-26-7.67-28-15.24-56.13-30.17-84.17-45.29-11.71-6.31-19.34-4-19.49,10.25q-.54,51.46,0,102.93c.15,15.65,8,17.11,20.4,10.19,19.79-11.05,40.74-20.24,59.67-32.58,25.22-16.44,51.77-22.8,81.66-20.86,25.63,1.66,51.45.35,77.19.34,21,0,31.55,0,37.17,5.27,4.06,3.81,4.77,15.25,7.48,37,.78,6.23,1.35,11.78,5.26,14,4.63,2.58,11.24-1.09,14.42-2.9,28.2-16.1,57.37-30.45,85.63-46.46,13.33-7.55,26.58-8.19,40.7-4.49,33.84,8.87,56.49,40.39,53.31,74.14-3.38,35.85-32.06,63.26-68.56,64.18-30.62.77-61.28.23-91.92.25-37.21,0-37.21,0-38.55-37.85-.71-20-5.44-22.81-23.58-13.23-26.54,14-53,28.22-79.21,42.86a66.39,66.39,0,0,1-33.25,8.43c-23.84.11-47.85-2.46-71.51,2.47-42.42,8.84-73.7,45.3-75.76,88.06C48.12,409.94,75.77,449,118.57,462.2c19,5.84,30.89-.06,36.44,8.43,4.16,6.36.11,13,3,39.34.49,4.49,1.23,9.91,5.08,12.09,4.41,2.5,10.54-.6,13.19-2,17.9-9.4,36.36-18,53.28-29C260,471.39,292.35,462.9,328.7,466c14,1.21,21.25,3.52,25.47,18.81,10.46,37.92,36.34,62.39,75,70.27,38.42,7.82,71.73-3.55,97.31-33.89C552.57,490.3,556.81,446.24,538,410.89ZM78,162.2c-9.7,5.26-11.65.31-11.6-8.2q.15-30.27,0-60.54c0-7.63,1.79-12.4,10.55-7.68,22.5,12.15,45,24.35,71.34,38.64C122,138.56,100,150.31,78,162.2Zm282.22.46c-6.77,3.62-10.43,1.73-10.45-6.13,0-21.4,0-42.8-.11-64.2-.06-9.81,4.64-9.81,11.54-6.07,22,11.9,44,23.78,70.52,38.15C405.24,138.59,382.75,150.64,360.25,162.66Zm-53.21,81c6.08-3.25,9.17-.89,9.16,5.85,0,22,0,44-.08,66,0,6.54-3.13,9.17-9.31,5.88-23-12.23-45.91-24.58-72.19-38.68C261.12,268.37,284,255.92,307,243.63ZM188.33,494.56c-9.84,5.45-13.12,2.22-13-8.09.21-19.56-.05-39.13.21-58.69.07-5.29.14-13.1,8.82-8.7,23.19,11.76,46,24.35,72.45,38.5C230.2,471.92,209.16,483,188.33,494.56ZM448.79,540.8c-45.56-.5-82-38-81.72-84.13.29-46.27,37-82.17,83.55-81.7,45.88.47,82.93,38.11,82.28,83.58S494.12,541.31,448.79,540.8Z" transform="translate(-49.5 -58.84)"/><path class="cls-1" d="M498.93,447.64q-32.59-18.58-65.63-36.36c-10.26-5.52-16.67-2-17.08,9.82-.43,12.19-.09,24.4-.11,36.6s-.36,24.42.08,36.6c.41,11.44,6,15.79,16.8,9.92q32.94-18,65.63-36.36C509.84,461.54,510.38,454.17,498.93,447.64ZM432,479l1-49,44,27Z" transform="translate(-49.5 -58.84)"/></svg>