<svg id="Layer_1" data-name="Layer 1" xmlns="http://www.w3.org/2000/svg" viewBox="0 0 518.55 513.39"><defs><style>.cls-1{fill:none;}.cls-2,.cls-3,.cls-4{fill:#727272;}.cls-3,.cls-4{stroke:#727272;}.cls-3{stroke-width:3px;}.cls-4{stroke-width:0.25px;}.cls-5{fill:#cdcdcd;}.cls-6{fill:#838383;}</style></defs><title>IconStyle</title><path class="cls-1" d="M423,97.56c0,3.34,1.62,5.37,5.15,5.41,4,0,8,.1,12,0,3.54-.12,5.66-2.13,5.72-5.66.13-8.16.19-16.32,0-24.47-.11-4.21-3.13-6.55-7.34-6.37-3.15.14-6.31.39-9.46.37-4,0-5.87,2-6,5.77-.13,4.16,0,8.32,0,12.49h0C423,89.24,423,93.4,423,97.56Z" transform="translate(-24.5 -30.11)"/><path class="cls-1" d="M456.6,223.15c-1.6-1.46-5-1.21-7.66-1.21q-73.73-.09-147.46,0v0H194c-14.33,0-28.66-.06-43,.12-5.53.07-10.9,5.19-10.86,9.75s5.55,9.74,10.75,10.21c1.32.12,2.66.05,4,.05H447.83a33.61,33.61,0,0,0,6-.31c3.93-.71,9.67-5.9,8.84-9A21.16,21.16,0,0,0,456.6,223.15Z" transform="translate(-24.5 -30.11)"/><path class="cls-1" d="M327,201.91c0,8,2,10,10.08,10q31,0,62,0c14.53,0,15.1-.57,14.91-15.19-.38-29.61-.9-59.22-1-88.83-.05-19.81.52-39.62.89-59.42.13-6.76-1.6-8.71-8.38-8.73-12.16,0-24.33-.15-36.48.09a20.52,20.52,0,0,0-8.49,2.23,137.09,137.09,0,0,1-46.29,13.94c-11.66,1.32-23.55.86-35.34.66-15.5-.26-30.19-4.9-44.12-11-8.74-3.84-17.05-6.76-26.66-6-5.79.47-11.66.07-17.49.07-8.38,0-9.72,1.43-9.7,10,0,11.33,0,22.66,0,34h0c0,11.83-.06,23.66,0,35.49.05,7.33,1.44,8.62,8.92,8.7,5.83.06,11.66,0,17.49,0s7.87-1.66,9.37-7.44c4-15.61,14.19-26.32,29.57-29.21,16.54-3.11,33.58-3.79,50.17,2,15.39,5.41,30,24.18,30.25,40.53C327.1,156.6,327,179.26,327,201.91Z" transform="translate(-24.5 -30.11)"/><path class="cls-2" d="M471.59,228.79C470,218.2,463.75,212.18,454,212c-7.66-.12-15.33,0-23-.08-6.31,0-8-1.71-8.05-8q-.07-41.49,0-83c0-7.29,1.48-8.68,8.84-8.82,13.43-.25,13.53-.24,14.19,13,.17,3.41,1.56,4.78,4.88,4.77s4.43-1.66,4.46-4.67c.1-9.79.34-19.57.36-29.36,0-16.79-.09-33.57,0-50.36,0-2.85-.88-4.28-3.9-4.54-4.39-.37-5.85,1.41-5.81,5.74.08,9.07-.56,9.52-9.66,9.57-2.5,0-5,0-7.5,0-3.91,0-5.81-2-5.78-5.89,0-5-.14-10,.08-15,.17-3.89-1.34-5.3-5.24-5.27-17.66.13-35.33,0-53,.16-2.66,0-5.41,1.22-7.95,2.28-8.1,3.39-15.9,7.67-24.23,10.28-7.17,2.25-14.89,2.82-22.4,3.88-27,3.84-53,.35-77.48-12.1-3.35-1.7-6.89-4.12-10.41-4.22-15.48-.47-31-.19-46.48-.25-3.21,0-4.29,1.32-4.27,4.56q.26,46.47.28,92.95c0,10.46,0,10.46,10.24,10.25,7.62-.16,9,1.17,9,8.94,0,9,.14,18,0,27-.09,4.42,2,5.48,5.91,5.11,3.39-.33,3.85-2.48,3.83-5.27q-.11-13.5-.05-27c0-7.49,1.38-8.82,8.68-8.79,3.33,0,6.67-.07,10,.08,3.83.17,5.81-1.44,5.18-5.32-2.49-15.37,17-33.78,31.59-32.84,7.47.48,15,.29,22.49,0,8.35-.27,15.2,3.43,21.59,8,13,9.22,18.09,22.63,18.49,38,.33,12.64.1,25.29.09,37.93,0,6.49.15,13-.19,19.47-.37,7-2.36,8.71-9.3,8.74-12.66,0-25.33,0-38,0q-60.74,0-121.47,0c-4.88,0-9.07,1.06-12.85,4.37-6.61,5.79-6.81,15.43-4.13,23.15,2.47,7.14,9.9,11.53,18.83,11.54q75,.06,149.95,0v-.07q74.22,0,148.44-.05a32.34,32.34,0,0,0,8.84-1.23C467.37,247.25,472.95,237.77,471.59,228.79ZM423.07,72.59c.12-3.75,2-5.79,6-5.77,3.15,0,6.31-.24,9.46-.37,4.2-.18,7.23,2.17,7.34,6.37.21,8.15.16,16.32,0,24.47-.06,3.53-2.18,5.54-5.72,5.66-4,.13-8,.07-12,0-3.53,0-5.1-2.07-5.15-5.41-.06-4.16,0-8.33,0-12.49h0C423,80.91,422.94,76.75,423.07,72.59ZM296.54,93.41c-16.59-5.83-33.64-5.15-50.17-2C231,94.27,220.82,105,216.79,120.59c-1.49,5.78-3.41,7.44-9.37,7.44s-11.66,0-17.49,0c-7.48-.08-8.86-1.36-8.92-8.7-.09-11.83,0-23.66,0-35.49h0c0-11.33,0-22.66,0-34,0-8.59,1.31-10,9.7-10,5.83,0,11.69.4,17.49-.07,9.6-.79,17.92,2.14,26.66,6,13.93,6.12,28.62,10.77,44.12,11,11.78.19,23.68.65,35.34-.66a137.09,137.09,0,0,0,46.29-13.94A20.52,20.52,0,0,1,369,39.89c12.16-.24,24.32-.13,36.48-.09,6.79,0,8.51,2,8.38,8.73C413.54,68.34,413,88.15,413,108c.08,29.61.6,59.22,1,88.83.19,14.62-.38,15.21-14.91,15.19q-31,0-62,0c-8.06,0-10.07-2-10.08-10,0-22.66.07-45.32-.24-68C326.56,117.59,311.93,98.82,296.54,93.41ZM453.81,241.67a33.61,33.61,0,0,1-6,.31H154.89c-1.33,0-2.67.07-4-.05-5.2-.47-10.71-5.73-10.75-10.21S145.48,222,151,222c14.33-.18,28.66-.12,43-.12H301.47v0q73.73,0,147.46,0c2.62,0,6.07-.25,7.66,1.21a21.16,21.16,0,0,1,6,9.53C463.48,235.77,457.73,241,453.81,241.67Z" transform="translate(-24.5 -30.11)"/><path class="cls-2" d="M396.06,137c1.65,15.36-12.34,26.49-24.29,26.16-17.3-.48-29.49-10.77-29.49-26.07,0-14.61,13.18-28.24,27.67-27.85C381.47,109.56,397.76,118.69,396.06,137Zm-26-18c-8.86-.06-18.15,9-18.22,17.82-.07,9.06,8.29,17.13,17.91,17.29a17,17,0,0,0,17.45-16.83C387.43,128.32,378.71,119,370.1,119Z" transform="translate(-24.5 -30.11)"/><path class="cls-3" d="M349,542c-.67-3.53-1.92-7.06-1.93-10.59C346.93,487.6,347,443.79,347,400a10,10,0,0,0-.15-3.47c-.56-1.43-1.43-3.54-2.51-3.77a6,6,0,0,0-4.71,1.56c-4.93,4.94-9.68,10.07-14.31,15.31-2.49,2.81-4.58,2.73-7.06.11-9.61-10.16-19.44-20.12-28.86-30.45-7.6-8.33-7.29-8.39,1.72-15.71,11.49-9.34,22.77-18.95,34.18-28.39,16.21-13.41,34.69-19.41,55.86-18.48,16.59.73,33.25-.26,49.86,0,12.46.2,25.08.06,37.29,2.11,11.16,1.87,21.09,8,29.93,15.31,13.56,11.27,27.06,22.6,40.72,33.74,3,2.45,3.57,4.26.71,7.22-10.77,11.13-21.35,22.43-32.08,33.6-4.18,4.35-5,4.34-9.21-.1S490.2,399.37,485.9,395c-1.22-1.26-3.23-1.75-4.88-2.59-.91,1.79-2.61,3.58-2.61,5.37,0,30,.19,60,.32,89.93.06,14.12.23,28.24-.08,42.35-.09,4-1.72,8-2.64,12Zm124.12-85.81h-.06q0-6.5,0-13c0-19.66-.05-39.32.07-59,0-1.8,1.16-3.59,1.77-5.38,1.64.81,3.64,1.27,4.86,2.5,6.08,6.15,12,12.49,17.91,18.8,4.21,4.49,6.49,4.52,10.67.12q10.15-10.69,20.34-21.34c6.48-6.74,6.49-7.48-.83-13.46q-18-14.69-36-29.29a61.49,61.49,0,0,0-29.69-13.31c-4.32-.68-6.47.76-7.47,5.55A38.13,38.13,0,0,1,433,356.07c-24.48,11.66-49-5.3-53.46-26.93-1.1-5.31-3.55-7.29-8.79-7.19-11.16.22-21.84,3.21-30.57,9.53-15.89,11.51-30.77,24.39-46.07,36.71-3.59,2.89-3.21,5.52,0,8.69,7.32,7.27,14.47,14.73,21.51,22.27,5.1,5.47,7.42,5.57,12.57.09,5.93-6.31,11.9-12.59,18-18.76.89-.91,2.84-1.86,3.68-1.47,1,.48,1.47,2.32,1.94,3.66a7.9,7.9,0,0,1,.05,2.48c0,22.16.09,44.32,0,66.48q-.11,38.48-.43,77c0,5,3,5.56,6.92,5.56q54.23-.07,108.46,0c4.78,0,6.45-1.77,6.42-6.49C473,503.85,473.12,480,473.12,456.19ZM417.43,322v0c-9.31,0-18.63-.12-27.94,0-5.11.09-7.43,3-5.65,6.79a122.08,122.08,0,0,0,6.39,12.23c8,13,29,17.82,42.14,10.06,8.12-4.78,13.44-11.56,16.79-20.28,2.59-6.75,1.52-8.79-5.78-8.87C434.73,321.92,426.08,322,417.43,322Z" transform="translate(-24.5 -30.11)"/><path class="cls-4" d="M144,373.75" transform="translate(-24.5 -30.11)"/><path class="cls-5" d="M113.87,388c1.24-.41,2.66-.91,4.22-1.49a86.86,86.86,0,0,0,11.54-5.16l-.1-.12C126,382.67,120,385.16,113.87,388Z" transform="translate(-24.5 -30.11)"/><path class="cls-2" d="M283.5,447.43,251,440.53l-1,5-5.87,29.86,32.2,7.24Z" transform="translate(-24.5 -30.11)"/><path class="cls-2" d="M196.65,429.06,189.8,463.9l32.2,7.24L229.19,436Z" transform="translate(-24.5 -30.11)"/><path class="cls-2" d="M143.33,417.8l-6.85,34.84,32.2,7.24,7.19-35.18Z" transform="translate(-24.5 -30.11)"/><path class="cls-6" d="M54.26,448.64a2.38,2.38,0,0,1,1,1.87,2.27,2.27,0,0,1,.58-.75C55.22,448.45,55,448.13,54.26,448.64Z" transform="translate(-24.5 -30.11)"/><path class="cls-1" d="M66.84,390.11c-14-.27-22.9,11.84-22.85,21.49.07,14.08,10,23.54,23.77,23.18,11.82-.3,21.91-10.43,21.87-21.42C89.6,401.17,77.29,387.94,66.84,390.11Z" transform="translate(-24.5 -30.11)"/><path class="cls-1" d="M90.67,268.84c-13.21.4-22.62,10.41-22.2,23.63-1,13.16,11.91,23.75,23.92,23.29,12.74-.49,23.34-11.13,23-23.36C115.06,278.27,104.71,268.42,90.67,268.84Z" transform="translate(-24.5 -30.11)"/><path class="cls-1" d="M66.84,390.11c-14-.27-22.9,11.84-22.85,21.49.07,14.08,10,23.54,23.77,23.18,11.82-.3,21.91-10.43,21.87-21.42C89.6,401.17,77.29,387.94,66.84,390.11Z" transform="translate(-24.5 -30.11)"/><path class="cls-1" d="M54.26,448.64a2.38,2.38,0,0,1,1,1.87,2.27,2.27,0,0,1,.58-.75C55.22,448.45,55,448.13,54.26,448.64Z" transform="translate(-24.5 -30.11)"/><path class="cls-1" d="M90.67,268.84c-13.21.4-22.62,10.41-22.2,23.63-1,13.16,11.91,23.75,23.92,23.29,12.74-.49,23.34-11.13,23-23.36C115.06,278.27,104.71,268.42,90.67,268.84Z" transform="translate(-24.5 -30.11)"/><path class="cls-1" d="M66.84,390.11c-14-.27-22.9,11.84-22.85,21.49.07,14.08,10,23.54,23.77,23.18,11.82-.3,21.91-10.43,21.87-21.42C89.6,401.17,77.29,387.94,66.84,390.11Z" transform="translate(-24.5 -30.11)"/><path class="cls-1" d="M54.26,448.64a2.38,2.38,0,0,1,1,1.87,2.27,2.27,0,0,1,.58-.75C55.22,448.45,55,448.13,54.26,448.64Z" transform="translate(-24.5 -30.11)"/><path class="cls-1" d="M90.67,268.84c-13.21.4-22.62,10.41-22.2,23.63-1,13.16,11.91,23.75,23.92,23.29,12.74-.49,23.34-11.13,23-23.36C115.06,278.27,104.71,268.42,90.67,268.84Z" transform="translate(-24.5 -30.11)"/><path class="cls-1" d="M66.84,390.11c-14-.27-22.9,11.84-22.85,21.49.07,14.08,10,23.54,23.77,23.18,11.82-.3,21.91-10.43,21.87-21.42C89.6,401.17,77.29,387.94,66.84,390.11Z" transform="translate(-24.5 -30.11)"/><path class="cls-1" d="M90.67,268.84c-13.21.4-22.62,10.41-22.2,23.63-1,13.16,11.91,23.75,23.92,23.29,12.74-.49,23.34-11.13,23-23.36C115.06,278.27,104.71,268.42,90.67,268.84Z" transform="translate(-24.5 -30.11)"/><path class="cls-1" d="M54.26,448.64a2.38,2.38,0,0,1,1,1.87,2.27,2.27,0,0,1,.58-.75C55.22,448.45,55,448.13,54.26,448.64Z" transform="translate(-24.5 -30.11)"/><path class="cls-1" d="M66.84,390.11c-14-.27-22.9,11.84-22.85,21.49.07,14.08,10,23.54,23.77,23.18,11.82-.3,21.91-10.43,21.87-21.42C89.6,401.17,77.29,387.94,66.84,390.11Z" transform="translate(-24.5 -30.11)"/><path class="cls-1" d="M54.26,448.64a2.38,2.38,0,0,1,1,1.87,2.27,2.27,0,0,1,.58-.75C55.22,448.45,55,448.13,54.26,448.64Z" transform="translate(-24.5 -30.11)"/><path class="cls-1" d="M90.67,268.84c-13.21.4-22.62,10.41-22.2,23.63-1,13.16,11.91,23.75,23.92,23.29,12.74-.49,23.34-11.13,23-23.36C115.06,278.27,104.71,268.42,90.67,268.84Z" transform="translate(-24.5 -30.11)"/><path class="cls-1" d="M66.84,390.11c-14-.27-22.9,11.84-22.85,21.49.07,14.08,10,23.54,23.77,23.18,11.82-.3,21.91-10.43,21.87-21.42C89.6,401.17,77.29,387.94,66.84,390.11Z" transform="translate(-24.5 -30.11)"/><path class="cls-1" d="M54.26,448.64a2.38,2.38,0,0,1,1,1.87,2.27,2.27,0,0,1,.58-.75C55.22,448.45,55,448.13,54.26,448.64Z" transform="translate(-24.5 -30.11)"/><path class="cls-1" d="M90.67,268.84c-13.21.4-22.62,10.41-22.2,23.63-1,13.16,11.91,23.75,23.92,23.29,12.74-.49,23.34-11.13,23-23.36C115.06,278.27,104.71,268.42,90.67,268.84Z" transform="translate(-24.5 -30.11)"/><path class="cls-2" d="M269.49,328.65c.15-1.81-1.48-3.26-2.73-4.37-1.56-1.38-3.54-2.31-7.51-4.16h0a84.22,84.22,0,0,0-20.62-6.6,89.18,89.18,0,0,0-10.3-1.17,58,58,0,0,0-12.56,1,60.9,60.9,0,0,0-10.25,2.92c-12.44,4.49-24.89,8.92-37.13,13.91l-17.49,6.7-9.78,2.88a8.56,8.56,0,0,1-4.79,1,9.28,9.28,0,0,1-4.93-2.32c-2.2-1.73-4.66-3.74-7.31-6a14,14,0,0,0-2.39-2.07q-.12-.43-.21-.87c-4.29-4.1-1.19-7.69,1.08-11,2.75-4,5.67-7.78,7.33-12.45,3.87-10.89,2.44-21.45-1.54-31.92a.89.89,0,0,1,.31-.23,32.25,32.25,0,0,0-14.06-16.2,1.16,1.16,0,0,0,.06-.13.66.66,0,0,0-.28-.73c-9.89-7-20.75-9.39-32.49-6.15-10.08,2.78-18.48,8.22-24.41,17.06H58a64.55,64.55,0,0,1-2.86,5.89c-5.63,10.71-5.86,22.06-2,33.09a38.88,38.88,0,0,0,5.82,10.68A22.72,22.72,0,0,0,64,324.1c9.95,8.83,19.36,18.24,29.06,27.34,2.66,2.49,4,4.75-.5,6.43C86.95,360,62.09,368.62,51,373.67c-6.88,3.14-10.28,5.73-12.6,7.83-4.6,4.18-8.16,9.38-9.21,12.09-4.49,7-5.32,15.13-4.34,23.24C27.16,435.66,37.7,447.76,56.28,453c17.75,5,33.27-1.69,43.52-14.19,8.93-10.88,11.29-23.54,7.88-37.1-1.17-4.64-.73-8.48,2.28-11.83,1.29-.64,2.6-1.27,3.91-1.88,6.11-2.86,12.12-5.35,15.66-6.77l.1.12L146,401l69.88,17.22-49.7-47.43a1.43,1.43,0,0,1,0-.34c.24-.94,1.45-1.39,1.86-1.54,2.48-.92,29.33-11,66.26-24.91h0l30.45-11.11C267.44,332.1,269.34,330.46,269.49,328.65ZM55.23,450.51a2.38,2.38,0,0,0-1-1.87c.72-.51,1-.2,1.54,1.12A2.27,2.27,0,0,0,55.23,450.51Zm12.53-15.73c-13.74.35-23.7-9.1-23.77-23.18,0-9.65,8.82-21.76,22.85-21.49,10.44-2.18,22.75,11.05,22.79,23.26C89.66,424.35,79.58,434.48,67.76,434.79Zm24.63-119c-12,.46-24.94-10.13-23.92-23.29-.42-13.21,9-23.23,22.2-23.63,14-.42,24.39,9.43,24.75,23.55C115.73,304.62,105.13,315.27,92.39,315.76Z" transform="translate(-24.5 -30.11)"/></svg>